<svg width="44" height="54" viewBox="0 0 44 54" fill="none" xmlns="http://www.w3.org/2000/svg">
<g clip-path="url(#clip0_14_368)">
<path d="M41.8137 0.907512C40.8819 0.539301 39.9381 0.490206 38.9704 0.772501C38.6956 0.919786 38.4089 1.06707 38.1341 1.21435C37.477 1.66848 36.8439 2.13488 36.1151 2.454L36.1151 2.44173C36.0554 2.53992 35.9717 2.56446 35.8642 2.56446L35.8762 2.55219C35.8284 2.58901 35.7925 2.6381 35.7448 2.67493C33.9886 3.84093 32.1966 4.94556 30.3807 6.01337C28.4811 7.22847 26.5935 8.44357 24.6462 9.57275C24.4073 9.73231 24.1564 9.87959 23.9174 10.0392C23.2365 10.5301 22.5077 10.972 21.767 11.377C19.8555 12.5675 17.944 13.7458 16.0326 14.9364C14.1689 16.0901 12.3052 17.2438 10.4415 18.4098C10.1906 18.5694 9.9397 18.7167 9.68882 18.8762C8.98396 19.4163 8.19547 19.8213 7.44283 20.2877C6.83354 20.6682 6.2362 21.0609 5.62692 21.4292C4.32472 22.2269 3.02252 23.0247 1.70837 23.8102C1.38581 24.1294 1.0513 24.4485 0.728735 24.7676C0.119447 25.6513 -0.0478042 26.6577 0.0238739 27.7133C0.322545 29.2107 1.2544 30.1558 2.5327 30.8431C3.28535 31.2481 3.97826 31.7636 4.70701 32.2177C5.47161 32.6105 6.18841 33.0646 6.88133 33.5801C7.10832 33.6415 7.29947 33.752 7.45477 33.9238C9.4021 35.0407 11.3136 36.219 13.1892 37.4709C15.1724 38.6246 17.1078 39.8397 19.0193 41.0916C19.6883 41.4476 20.3334 41.8403 20.9427 42.2945C21.2414 42.4172 21.5161 42.589 21.767 42.7977C23.7024 43.9514 25.6258 45.1051 27.5015 46.3571C29.413 47.5476 31.3244 48.7259 33.2359 49.9164C33.9886 50.3092 34.7054 50.7756 35.3983 51.2665C35.685 51.3525 35.912 51.5243 36.127 51.7207C36.9514 52.2239 37.7877 52.7271 38.612 53.2426C39.6872 53.6722 40.7505 53.7336 41.8257 53.2549C42.6739 52.813 43.2712 52.1134 43.7252 51.2665C44.0239 50.2969 44.0597 49.315 43.761 48.3331C43.5102 47.4371 43.2712 46.5289 43.0203 45.6329C42.638 44.5896 42.3872 43.5096 42.0885 42.4417C41.527 40.478 40.9774 38.5142 40.4159 36.5381C40.1412 35.5562 39.8544 34.5743 39.5797 33.6047C39.0182 31.6409 38.4686 29.6771 37.9071 27.701C37.7877 27.3942 37.704 27.0873 37.7996 26.7437C38.2775 25.099 38.7434 23.4543 39.2213 21.8096C39.496 20.8277 39.7708 19.8458 40.0456 18.8517C40.3323 17.8698 40.6071 16.8879 40.8938 15.906C41.4673 13.8808 42.0527 11.8679 42.6261 9.84277C42.9248 8.79951 43.2234 7.74397 43.5221 6.7007C43.6894 5.87836 44.0358 5.05603 44 4.14777C43.8566 2.9204 43.2832 1.9385 42.3155 1.21436C42.1482 1.11617 41.981 1.01798 41.8137 0.907512ZM30.3687 15.0836C31.5275 14.3472 32.6864 13.6108 33.9886 12.7762C33.6421 13.9422 33.3315 14.9364 33.0328 15.9428C32.8297 16.9861 32.5072 18.0048 32.1727 19.0112C31.9457 19.9686 31.6948 20.9137 31.3603 21.8342C31.2408 22.3006 31.1094 22.7793 31.0019 23.2457C30.6435 24.7185 29.9745 26.13 30.1059 27.701C30.6435 29.6648 31.193 31.6163 31.7306 33.5801C32.0651 34.5375 32.3638 35.5071 32.555 36.5135C33.0089 38.0478 33.451 39.5697 33.9288 41.1653C33.5824 41.1162 33.4032 40.9934 33.2359 40.8462C32.4952 40.4289 31.7545 39.9993 31.0736 39.4961C30.7988 39.4101 30.5599 39.2506 30.3568 39.0419C28.3616 37.9127 26.4382 36.6731 24.5148 35.4457C22.6033 34.2552 20.7038 33.0646 18.7923 31.8741C18.1233 31.5181 17.4542 31.1377 16.8449 30.659C16.5463 30.5485 16.2715 30.3767 16.0326 30.1558C14.4675 29.1984 12.9145 28.2411 11.3494 27.2837C11.0269 27.0873 11.1463 26.9646 11.3853 26.8173C11.9826 26.4614 12.5799 26.0932 13.1773 25.7372C15.041 24.5835 16.9047 23.4298 18.7684 22.2638C19.0193 22.1042 19.2701 21.9569 19.521 21.7974C20.2378 21.2819 20.9905 20.8155 21.767 20.4104C23.6427 19.1708 25.5541 17.9925 27.5015 16.8633C27.9913 16.4951 28.505 16.176 29.0546 15.906C29.4369 15.5746 29.8789 15.2923 30.3687 15.0836Z" fill="#009FE5"/>
</g>
<defs>
<clipPath id="clip0_14_368">
<rect width="44" height="52.9979" fill="white" transform="matrix(-1 -8.91004e-08 -8.57767e-08 1 44 0.588501)"/>
</clipPath>
</defs>
</svg>
