<svg width="44" height="54" viewBox="0 0 44 54" fill="none" xmlns="http://www.w3.org/2000/svg">
<g clip-path="url(#clip0_14_366)">
<path d="M2.18616 53.2672C3.11801 53.6354 4.0618 53.6845 5.02949 53.4022C5.30427 53.2549 5.59099 53.1076 5.86576 52.9603C6.52284 52.5062 7.15602 52.0398 7.88477 51.7207L7.88477 51.733C7.94451 51.6348 8.02813 51.6102 8.13565 51.6102L8.12371 51.6225C8.17149 51.5857 8.20733 51.5366 8.25512 51.4998C10.0113 50.3338 11.8033 49.2291 13.6192 48.1613C15.5188 46.9462 17.4064 45.7311 19.3537 44.6019C19.5926 44.4424 19.8435 44.2951 20.0824 44.1355C20.7634 43.6446 21.4922 43.2027 22.2329 42.7977C24.1443 41.6072 26.0558 40.4289 27.9673 39.2383C29.831 38.0846 31.6947 36.9309 33.5584 35.7649C33.8093 35.6053 34.0602 35.458 34.3111 35.2985C35.0159 34.7584 35.8044 34.3534 36.557 33.887C37.1663 33.5065 37.7637 33.1137 38.373 32.7455C39.6752 31.9477 40.9774 31.15 42.2915 30.3644C42.6141 30.0453 42.9486 29.7262 43.2711 29.4071C43.8804 28.5234 44.0477 27.5169 43.976 26.4614C43.6773 24.964 42.7455 24.0189 41.4672 23.3316C40.7145 22.9266 40.0216 22.4111 39.2929 21.9569C38.5283 21.5642 37.8115 21.1101 37.1185 20.5946C36.8916 20.5332 36.7004 20.4227 36.5451 20.2509C34.5978 19.134 32.6863 17.9557 30.8106 16.7038C28.8275 15.5501 26.8921 14.335 24.9806 13.0831C24.3116 12.7271 23.6665 12.3344 23.0572 11.8802C22.7585 11.7575 22.4837 11.5857 22.2329 11.377C20.2975 10.2233 18.3741 9.06955 16.4984 7.81763C14.5869 6.62708 12.6754 5.4488 10.764 4.25825C10.0113 3.86549 9.2945 3.39909 8.60159 2.90814C8.31486 2.82223 8.08787 2.65039 7.87283 2.45402C7.04851 1.95079 6.21223 1.44757 5.3879 0.932073C4.31269 0.502496 3.24943 0.441125 2.17422 0.9198C1.326 1.36165 0.728658 2.06126 0.27468 2.90814C-0.0239895 3.87777 -0.05983 4.85966 0.238839 5.84156C0.489722 6.73754 0.728657 7.64579 0.979539 8.54177C1.36184 9.58504 1.61272 10.6651 1.91139 11.7329C2.47289 13.6967 3.02244 15.6605 3.58394 17.6366C3.85871 18.6185 4.14543 19.6004 4.42021 20.57C4.98171 22.5338 5.53126 24.4976 6.09276 26.4737C6.21223 26.7805 6.29585 27.0873 6.20028 27.431C5.72241 29.0757 5.25648 30.7204 4.77861 32.365C4.50384 33.3469 4.22906 34.3288 3.95428 35.323C3.66756 36.3049 3.39278 37.2868 3.10606 38.2687C2.53262 40.2939 1.94722 42.3067 1.37378 44.3319C1.07511 45.3752 0.776437 46.4307 0.477768 47.474C0.310513 48.2963 -0.0359441 49.1187 -0.00010387 50.0269C0.143257 51.2543 0.716703 52.2362 1.68439 52.9603C1.85165 53.0585 2.0189 53.1567 2.18616 53.2672ZM13.6312 39.091C12.4723 39.8275 11.3135 40.5639 10.0113 41.3985C10.3578 40.2325 10.6684 39.2383 10.967 38.2319C11.1701 37.1886 11.4927 36.1699 11.8272 35.1635C12.0542 34.2061 12.3051 33.261 12.6396 32.3405C12.7591 31.8741 12.8905 31.3954 12.998 30.929C13.3564 29.4562 14.0254 28.0447 13.894 26.4737C13.3564 24.5099 12.8068 22.5584 12.2692 20.5946C11.9347 19.6372 11.6361 18.6676 11.4449 17.6611C10.9909 16.1269 10.5489 14.605 10.071 13.0094C10.4175 13.0585 10.5967 13.1812 10.764 13.3285C11.5047 13.7458 12.2454 14.1754 12.9263 14.6786C13.2011 14.7645 13.44 14.9241 13.6431 15.1328C15.6382 16.2619 17.5617 17.5016 19.4851 18.729C21.3966 19.9195 23.2961 21.1101 25.2076 22.3006C25.8766 22.6565 26.5456 23.037 27.1549 23.5157C27.4536 23.6262 27.7284 23.798 27.9673 24.0189C29.5323 24.9763 31.0854 25.9336 32.6504 26.891C32.973 27.0874 32.8535 27.2101 32.6146 27.3574C32.0173 27.7133 31.4199 28.0815 30.8226 28.4375C28.9589 29.5912 27.0952 30.7449 25.2315 31.9109C24.9806 32.0705 24.7297 32.2178 24.4789 32.3773C23.762 32.8928 23.0094 33.3592 22.2329 33.7642C20.3572 35.0039 18.4457 36.1822 16.4984 37.3114C16.0086 37.6796 15.4949 37.9987 14.9453 38.2687C14.563 38.6001 14.121 38.8824 13.6312 39.091Z" fill="#009FE5"/>
</g>
<defs>
<clipPath id="clip0_14_366">
<rect width="44" height="52.9979" fill="white" transform="matrix(1 1.78201e-07 1.71553e-07 -1 0 53.5863)"/>
</clipPath>
</defs>
</svg>
