<svg width="22" height="22" viewBox="0 0 22 22" fill="none" xmlns="http://www.w3.org/2000/svg">
<path d="M12.6165 10.9751L21.7355 1.88046C21.9157 1.67059 22.0099 1.40063 21.9992 1.12453C21.9885 0.848423 21.8737 0.586513 21.6778 0.391133C21.4819 0.195753 21.2193 0.0812934 20.9425 0.0706288C20.6656 0.0599641 20.3949 0.153879 20.1845 0.333606L11.0655 9.42822L1.9465 0.322636C1.73936 0.116056 1.45843 0 1.1655 0C0.872566 0 0.591632 0.116056 0.384498 0.322636C0.177364 0.529216 0.0609969 0.809398 0.0609969 1.10155C0.0609969 1.3937 0.177364 1.67388 0.384498 1.88046L9.5145 10.9751L0.384498 20.0697C0.269348 20.168 0.175826 20.2891 0.1098 20.4252C0.0437743 20.5613 0.00667115 20.7095 0.00081971 20.8606C-0.00503173 21.0117 0.0204943 21.1623 0.0757963 21.3031C0.131098 21.4439 0.214982 21.5718 0.322183 21.6787C0.429383 21.7856 0.557585 21.8693 0.698742 21.9244C0.8399 21.9796 0.990966 22.005 1.14246 21.9992C1.29395 21.9933 1.44259 21.9563 1.57906 21.8905C1.71554 21.8246 1.83689 21.7314 1.9355 21.6165L11.0655 12.5219L20.1845 21.6165C20.3949 21.7963 20.6656 21.8902 20.9425 21.8795C21.2193 21.8688 21.4819 21.7544 21.6778 21.559C21.8737 21.3636 21.9885 21.1017 21.9992 20.8256C22.0099 20.5495 21.9157 20.2795 21.7355 20.0697L12.6165 10.9751Z" fill="#009FE5"/>
</svg>
