<svg width="31" height="31" viewBox="0 0 31 31" fill="none" xmlns="http://www.w3.org/2000/svg">
<path d="M15.0662 0.30365C17.1337 0.30365 19.2246 0.280166 21.2921 0.30365C26.1553 0.374104 30.1022 4.24906 30.1492 9.13385C30.1962 13.2906 30.1962 17.4239 30.1492 21.5807C30.1022 26.395 26.2023 30.3169 21.3861 30.3639C17.2042 30.4109 13.0223 30.4109 8.81691 30.3639C4.02418 30.2935 0.12422 26.3715 0.0772328 21.5572C0.0302453 17.4004 0.0302453 13.2671 0.0772328 9.11037C0.12422 4.24906 4.07117 0.374104 8.95787 0.30365C11.0018 0.280166 13.0458 0.30365 15.0662 0.30365ZM27.1185 15.4277C27.1185 13.3611 27.142 11.2709 27.1185 9.20431C27.0716 5.8695 24.5342 3.35665 21.1981 3.33316C17.1572 3.30968 13.1398 3.30968 9.09883 3.33316C5.69224 3.35665 3.15491 5.86949 3.13142 9.25127C3.10793 13.2906 3.10793 17.3065 3.13142 21.3458C3.15491 24.7511 5.66874 27.2874 9.05184 27.3344C13.0928 27.3814 17.1102 27.3579 21.1511 27.3344C24.6282 27.3109 27.095 24.7981 27.142 21.2989C27.142 19.3262 27.142 17.3769 27.1185 15.4277Z" fill="white"/>
<path d="M15.1133 23.1073C10.8139 23.1073 7.36035 19.6316 7.36035 15.3339C7.36035 11.0362 10.8374 7.58398 15.1368 7.58398C19.4361 7.58398 22.8897 11.0597 22.8897 15.3574C22.8897 19.6316 19.4126 23.1073 15.1133 23.1073ZM15.1133 20.0543C17.7916 20.0543 19.859 17.9642 19.859 15.2869C19.859 12.6801 17.7916 10.6135 15.1838 10.59C12.5055 10.5665 10.391 12.6332 10.391 15.2869C10.391 17.9642 12.4585 20.0543 15.1133 20.0543Z" fill="white"/>
<path d="M22.9837 5.65818C24.0409 5.68166 24.8162 6.48014 24.8162 7.53695C24.8162 8.61724 23.947 9.48617 22.8663 9.4392C21.856 9.41571 21.0103 8.54678 21.0103 7.53695C21.0103 6.50362 21.903 5.6347 22.9837 5.65818Z" fill="white"/>
</svg>
