<svg width="30" height="31" viewBox="0 0 30 31" fill="none" xmlns="http://www.w3.org/2000/svg">
<g clip-path="url(#clip0_187_20)">
<path d="M29.9997 31C29.8759 31 29.7728 30.9787 29.649 30.9787C27.8127 30.9787 25.997 30.9787 24.1607 30.9787C23.8512 30.9787 23.7893 30.8723 23.7893 30.5955C23.7893 27.0824 23.8099 23.5694 23.7893 20.0563C23.7893 19.2473 23.6861 18.4169 23.5004 17.6504C23.129 16.16 22.1387 15.4148 20.6531 15.4361C20.1992 15.4361 19.7246 15.4787 19.2913 15.5852C17.9915 15.9258 17.3106 16.9052 17.0424 18.1827C16.8979 18.8853 16.8154 19.6092 16.7948 20.3331C16.7742 23.761 16.7742 27.1676 16.7948 30.5955C16.7948 30.8935 16.7123 30.9787 16.4234 30.9787C14.5871 30.9574 12.7714 30.9574 10.9351 30.9787C10.6875 30.9787 10.605 30.9148 10.6256 30.6593C10.6256 23.9952 10.6256 17.331 10.6256 10.6882C10.6256 10.4327 10.6875 10.3475 10.9351 10.3475C12.6889 10.3475 14.4633 10.3475 16.2171 10.3475C16.4647 10.3475 16.5678 10.4327 16.5472 10.6882C16.5266 11.3908 16.5472 12.0934 16.5472 12.8173C16.5472 12.9238 16.5472 13.0302 16.5472 13.1367C16.5678 13.158 16.6091 13.158 16.6297 13.1793C16.671 13.1154 16.7535 13.0728 16.7742 13.0089C17.7439 11.3056 19.2294 10.3475 21.0451 9.98558C22.6132 9.66621 24.1813 9.79396 25.6875 10.3262C27.5032 10.9437 28.638 12.285 29.257 14.1374C29.6077 15.1593 29.7728 16.2239 29.8553 17.2885C29.8966 17.8207 29.8966 18.3743 29.9378 18.9279C29.9378 19.0343 29.9791 19.1195 29.9997 19.226C29.9997 23.1223 29.9997 27.0611 29.9997 31Z" fill="white"/>
<path d="M3.77584 0C3.98217 0.0425824 4.16786 0.0851648 4.37419 0.127747C5.85975 0.489698 6.93265 1.76717 7.11834 3.32143C7.36594 5.45055 5.65342 7.66483 3.15686 7.40934C1.56814 7.2603 0.206376 5.8125 0.0206812 4.17308C-0.206279 2.06525 1.23801 0.425824 2.84737 0.106456C3.01243 0.0638736 3.17749 0.0212912 3.36318 0C3.50761 0 3.63141 0 3.77584 0Z" fill="white"/>
<path d="M0.495117 20.6524C0.495117 17.3522 0.495117 14.0521 0.495117 10.7519C0.495117 10.3474 0.495117 10.3474 0.887139 10.3474C2.68219 10.3474 4.4566 10.3474 6.25165 10.3474C6.54051 10.3474 6.64367 10.4326 6.64367 10.7307C6.64367 17.3522 6.64367 23.9951 6.64367 30.6166C6.64367 30.9147 6.54051 30.9786 6.27228 30.9786C4.47724 30.9573 2.70282 30.9786 0.907772 30.9786C0.495117 30.9786 0.495117 30.9786 0.495117 30.5528C0.495117 27.2526 0.495117 23.9525 0.495117 20.6524Z" fill="white"/>
</g>
<defs>
<clipPath id="clip0_187_20">
<rect width="30" height="31" fill="white"/>
</clipPath>
</defs>
</svg>
