<svg width="17" height="31" viewBox="0 0 17 31" fill="none" xmlns="http://www.w3.org/2000/svg">
<g clip-path="url(#clip0_51_223)">
<path d="M4.79441 30.3768C4.79441 30.2554 4.76918 30.1339 4.76918 29.9883C4.76918 25.6906 4.76918 21.3686 4.76918 17.0709C4.76918 16.9495 4.76918 16.8281 4.76918 16.6582C3.15433 16.6582 1.58995 16.6582 -0.0249023 16.6582C-0.0249023 14.8614 -0.0249023 13.1132 -0.0249023 11.3164C1.56471 11.3164 3.1291 11.3164 4.76918 11.3164C4.76918 11.1707 4.76918 11.0493 4.76918 10.9279C4.76918 9.51966 4.74394 8.13566 4.79441 6.72739C4.8701 5.05202 5.37474 3.49806 6.61111 2.23546C7.54469 1.28852 8.7306 0.73006 10.0427 0.462973C11.1276 0.244447 12.2126 0.268728 13.2976 0.317289C14.1807 0.34157 15.0638 0.414412 15.9469 0.487254C16.0226 0.487254 16.0731 0.511534 16.174 0.535815C16.174 2.11406 16.174 3.6923 16.174 5.29483C16.0731 5.29483 15.9722 5.29483 15.846 5.29483C14.761 5.31911 13.6761 5.29483 12.5911 5.34339C11.3043 5.41623 10.5725 6.09609 10.5221 7.3344C10.4716 8.62128 10.4968 9.90815 10.4968 11.2193C10.4968 11.2436 10.5221 11.2436 10.5221 11.3164C12.3135 11.3164 14.1302 11.3164 15.9722 11.3164C15.7199 13.1132 15.4928 14.8857 15.2657 16.6582C13.6761 16.6582 12.1117 16.6582 10.5221 16.6582C10.5221 16.7796 10.4968 16.8524 10.4968 16.9495C10.4968 21.3686 10.4968 25.7877 10.4968 30.1825C10.4968 30.2554 10.4968 30.3282 10.5221 30.3768C8.62967 30.3768 6.71204 30.3768 4.79441 30.3768Z" fill="white"/>
</g>
<defs>
<clipPath id="clip0_51_223">
<rect width="16.1989" height="30.0837" fill="white" transform="translate(0 0.292969)"/>
</clipPath>
</defs>
</svg>
