<svg width="39" height="27" viewBox="0 0 39 27" fill="none" xmlns="http://www.w3.org/2000/svg">
<g clip-path="url(#clip0_187_25)">
<path d="M39 9.64015C39 12.1761 39 14.712 39 17.2479C38.8681 17.3598 38.8681 17.3598 38.8492 17.6022C38.7738 19.0566 38.623 20.511 38.378 21.9468C37.9821 24.2403 36.6249 25.7879 34.5326 26.2541C33.7598 26.4406 32.9493 26.5151 32.1576 26.5711C29.4809 26.8135 26.7854 26.8881 24.1087 26.944C18.4161 27.0372 12.7235 27.0186 7.03093 26.5711C6.1073 26.4965 5.18366 26.4219 4.27888 26.1795C2.11116 25.5642 0.961334 24.0725 0.60319 21.9281C0.358144 20.4924 0.207347 19.0379 0.131948 17.5835C0.131948 17.4716 0.226196 17.2665 0 17.2292C0 14.7493 0 12.2506 0 9.77067C0.131948 9.65879 0.131948 9.65879 0.150797 9.3791C0.245046 7.70092 0.358144 6.02274 0.772837 4.38186C1.26293 2.46128 2.50701 1.21197 4.46738 0.745809C5.71145 0.447467 6.99323 0.391527 8.27501 0.298295C10.6312 0.149124 12.9874 0.0745384 15.3436 0.0372456C21.2247 -0.0559865 27.087 -0.0373401 32.9493 0.522052C33.8352 0.596638 34.7211 0.727163 35.5317 1.11874C37.2093 1.92053 38.0575 3.28172 38.3591 5.05313C38.6042 6.45161 38.755 7.85009 38.8304 9.26722C38.8681 9.39774 38.7738 9.58421 39 9.64015ZM15.6264 19.2803C19.0382 17.3411 22.3746 15.4392 25.7675 13.5C22.3746 11.5607 19.0193 9.65879 15.6264 7.71957C15.6264 11.5794 15.6264 15.4019 15.6264 19.2803Z" fill="white"/>
</g>
<defs>
<clipPath id="clip0_187_25">
<rect width="39" height="27" fill="white"/>
</clipPath>
</defs>
</svg>
