<svg width="42" height="42" viewBox="0 0 42 42" fill="none" xmlns="http://www.w3.org/2000/svg">
<g clip-path="url(#clip0_51_241)">
<path d="M8.97106 0C10.3167 0.261614 11.2904 1.10096 12.2094 2.04931C13.8395 3.7171 15.5243 5.31949 17.1107 7.03089C18.5986 8.63327 18.5986 10.7916 17.1216 12.4158C16.1042 13.5385 14.9992 14.585 13.9161 15.6533C13.6973 15.8713 13.6426 16.0239 13.7848 16.3073C14.8679 18.5637 16.4433 20.4822 18.1391 22.2917C19.8786 24.1448 21.7822 25.8126 23.9375 27.1752C24.5282 27.5458 25.1628 27.851 25.7645 28.1998C25.9724 28.3198 26.0927 28.2871 26.2568 28.1235C27.1649 27.197 28.0729 26.2595 29.0247 25.3766C29.5389 24.897 30.1188 24.4282 30.7533 24.1557C32.3834 23.4472 33.8822 23.8396 35.1404 25.0496C36.9565 26.8046 38.7069 28.6032 40.5121 30.3691C42.3719 32.1895 42.5361 34.6094 40.8075 36.4734C39.5275 37.8469 38.2256 39.1986 36.8361 40.4521C35.3373 41.7929 33.4774 42.1199 31.5191 41.9673C28.4449 41.7166 25.6332 40.6374 22.9091 39.2858C18.8611 37.28 15.1961 34.7293 11.9687 31.5899C7.10026 26.8591 3.19456 21.4851 0.962725 15.021C0.339125 13.2224 -0.0437876 11.3693 -2.61946e-05 9.43992C0.0546755 7.63042 0.645454 6.03893 1.91453 4.74176C3.03045 3.5972 4.15731 2.48534 5.28416 1.37348C6.01717 0.654036 6.90333 0.207111 7.90985 0C8.25994 0 8.62097 0 8.97106 0ZM32.2412 39.8853C33.5321 39.918 34.7137 39.591 35.6436 38.6971C36.8799 37.509 38.0724 36.2881 39.2321 35.0236C40.1073 34.0862 40.0854 33.0506 39.1992 32.135C37.3503 30.2492 35.4795 28.3852 33.5868 26.5321C32.8538 25.8126 31.913 25.7908 31.0815 26.4012C30.8736 26.5539 30.6877 26.7392 30.5017 26.9136C29.4842 27.9273 28.4668 28.9411 27.4384 29.9548C26.7491 30.6307 26.038 30.7506 25.1956 30.3146C24.5939 30.0093 24.0031 29.7041 23.4233 29.3662C20.8304 27.8183 18.5548 25.8671 16.509 23.6543C14.6053 21.6159 12.8768 19.4467 11.728 16.885C11.2248 15.7732 11.3451 15.1627 12.2203 14.3234C13.2269 13.3532 14.2334 12.3831 15.2071 11.3911C16.3558 10.2248 16.3449 9.26551 15.2289 8.07734C15.2071 8.05554 15.1961 8.03374 15.1742 8.02284C13.4566 6.35505 11.7718 4.66546 10.076 2.98676C9.80253 2.72515 9.4962 2.47444 9.15705 2.31093C8.22712 1.8749 7.43941 2.25642 6.77205 2.91046C5.68896 3.95692 4.60586 5.00337 3.58841 6.10433C3.13985 6.58396 2.75694 7.16169 2.50531 7.77213C1.92548 9.1347 2.07864 10.5736 2.36309 11.9689C2.91011 14.6395 3.9385 17.1466 5.28416 19.5012C10.087 27.9382 16.7934 34.3151 25.7426 38.2611C27.8103 39.1768 29.9547 39.809 32.2412 39.8853Z" fill="white"/>
</g>
<defs>
<clipPath id="clip0_51_241">
<rect width="42" height="42" fill="white"/>
</clipPath>
</defs>
</svg>
