<svg width="41" height="30" viewBox="0 0 41 30" fill="none" xmlns="http://www.w3.org/2000/svg">
<g clip-path="url(#clip0_51_232)">
<path d="M41 25.7728C41 18.5876 41 11.4124 41 4.22718C40.9799 4.17721 40.9499 4.12725 40.9398 4.07728C40.3682 1.43904 38.5829 0 35.865 0C25.5648 0 15.2647 0 4.9545 0C2.08611 0 0 2.07861 0 4.92671C0 11.6422 0 18.3578 0 25.0733C0 25.473 0.0300865 25.8727 0.12035 26.2625C0.641876 28.531 2.54745 30 4.9545 30C15.2346 30 25.5046 30 35.7847 30C35.9753 30 36.1558 30 36.3464 29.99C37.8608 29.9201 39.0844 29.2805 40.0171 28.0913C40.5687 27.4117 40.8195 26.6123 41 25.7728ZM37.8006 5.76616C37.8006 5.93604 37.8006 6.01599 37.8006 6.08594C37.8006 12.4117 37.8006 18.7475 37.8006 25.0733C37.8006 26.1725 37.1387 26.8021 36.0054 26.8021C25.6751 26.8021 15.3449 26.8021 5.01468 26.8021C3.85127 26.8021 3.20939 26.1626 3.20939 24.9933C3.20939 18.7175 3.20939 12.4417 3.20939 6.16589C3.20939 6.05596 3.22945 5.94604 3.23948 5.78614C3.4501 5.93604 3.60054 6.05596 3.76101 6.17588C9.21698 10.2232 14.683 14.2705 20.1289 18.3178C20.4097 18.5276 20.5903 18.5276 20.8711 18.3178C25.1737 15.1099 29.4963 11.9121 33.809 8.71419C35.1128 7.75483 36.4166 6.79547 37.8006 5.76616ZM5.125 3.20786C15.4151 3.20786 25.5949 3.20786 35.885 3.20786C30.7099 7.0453 25.615 10.8128 20.51 14.6003C15.3951 10.8228 10.3001 7.0453 5.125 3.20786Z" fill="white"/>
</g>
<defs>
<clipPath id="clip0_51_232">
<rect width="41" height="30" fill="white" transform="matrix(-1 0 0 1 41 0)"/>
</clipPath>
</defs>
</svg>
