<svg width="98" height="81" viewBox="0 0 98 81" fill="none" xmlns="http://www.w3.org/2000/svg">
<g clip-path="url(#clip0_33_516)">
<path d="M94.293 53.9371C91.7365 50.646 89.1161 47.3967 86.6448 44.0217C84.8552 41.5691 82.3839 40.3533 79.5291 39.6405C79.4013 39.5986 79.2735 39.5567 78.9965 39.4728C83.2787 36.0559 85.473 31.7376 85.0896 26.3711C84.8126 22.493 83.1509 19.2019 80.2109 16.5606C74.3309 11.278 65.4257 11.4247 59.6309 16.6444C54.4965 21.2772 51.7909 32.2197 60.6961 39.3051C59.4178 39.913 57.9691 40.4162 56.7548 41.2337C55.583 42.0303 54.5178 43.0575 53.6443 44.1685C50.96 47.5016 48.4035 50.9394 45.8043 54.3144C45.5913 54.587 45.357 54.8595 45.08 55.1949C44.1852 54.4193 43.3117 53.6646 42.4596 52.889C39.7539 50.4783 37.0696 48.0466 34.3 45.7197C33.4904 45.0489 32.4465 44.5877 31.4239 44.2733C30.7848 44.0637 30.5078 43.8121 30.3161 43.2252C28.0578 36.5171 25.7783 29.83 23.4774 23.1219C22.7104 20.8579 21.0274 19.705 19.0674 20.0404C16.3191 20.5225 14.9983 22.7655 15.9143 25.4488C17.3843 29.809 18.897 34.1483 20.4096 38.5085C21.3896 41.3804 22.3909 44.2314 23.3283 47.1242C23.4774 47.6064 23.4774 48.2143 23.3283 48.6964C22.4548 51.5054 23.1365 53.8533 25.1817 55.9705C28.1217 58.9891 30.9339 62.1335 33.7887 65.236C34.7261 66.2632 35.6635 67.2904 36.7287 68.4643C36.26 68.4853 35.9617 68.5272 35.6635 68.5272C25.3096 68.5272 14.9557 68.5272 4.62304 68.5272C1.72565 68.5481 0 66.8921 0 64.0831C0 44.2314 0 24.4006 0 4.54891C0 1.71894 1.74696 0 4.64435 0C33.043 0 61.4204 0 89.8191 0C92.8017 0 94.5061 1.69798 94.5061 4.6118C94.5061 20.7531 94.5061 36.8944 94.5061 53.0567C94.5061 53.3292 94.5061 53.6017 94.5061 53.8742C94.4422 53.8952 94.3783 53.9162 94.293 53.9371ZM6.45522 64.0412C11.3552 64.0412 16.1061 64.0412 20.9209 64.0412C20.9209 62.8044 21.0274 61.6095 20.8996 60.4565C20.7717 59.2197 19.6213 58.1087 18.3004 58.0668C15.2539 57.9829 12.2074 57.962 9.18217 58.0668C7.73348 58.1087 6.58304 59.3455 6.49783 60.729C6.3913 61.7981 6.45522 62.8672 6.45522 64.0412Z" fill="#009FE5"/>
<path d="M55.3912 60.6452C54.0278 62.4061 52.643 64.146 51.2795 65.9068C48.9786 68.9045 45.9321 69.9946 42.2891 69.0932C41.096 68.7997 39.8817 68.0031 39.0295 67.1227C35.2799 63.2236 31.6369 59.2197 27.9726 55.2578C27.5678 54.8175 27.1204 54.4193 26.7156 53.979C25.4373 52.6165 25.0965 50.625 26.0126 49.0528C26.3534 48.4658 26.3534 48.0047 26.1404 47.4177C23.5839 39.9969 21.0699 32.5761 18.5347 25.1553C18.4495 24.9247 18.3643 24.6941 18.3217 24.4635C18.1086 23.625 18.4495 22.9961 19.2804 22.7446C20.0686 22.514 20.6865 22.8703 20.9421 23.646C21.5173 25.2601 22.0712 26.8742 22.6252 28.4883C24.5852 34.2321 26.5452 39.9759 28.5265 45.6988C28.633 46.0132 28.7608 46.3486 28.9099 46.7259C30.9552 46.3276 32.4465 47.1871 33.8739 48.5078C37.4317 51.8199 41.0747 55.0272 44.6752 58.2764C44.9308 58.507 45.2078 58.7376 45.5273 59.0101C45.783 58.7166 45.996 58.4651 46.2091 58.1925C49.5325 53.8533 52.8347 49.493 56.2221 45.1957C57.7986 43.1832 59.9291 42.0093 62.6134 42.0093C67.5773 42.0303 72.5412 41.9884 77.5052 42.0303C80.3599 42.0512 82.7247 43.1832 84.4717 45.4262C88.5834 50.625 92.6739 55.8447 96.7643 61.0644C98.703 63.538 98.3834 66.7663 95.8908 68.8206C92.3969 71.7135 88.8604 74.5644 85.3665 77.4783C84.983 77.7927 84.706 78.3377 84.5782 78.8408C84.2799 80.0148 83.5343 80.8113 82.2986 81C81.9152 81.0629 81.5317 81.0629 81.1269 81.0629C73.8195 81.0629 66.5334 81.0629 59.226 81.0629C56.563 81.0629 55.6469 80.1615 55.6469 77.5621C55.6469 72.3214 55.6469 67.1017 55.6469 61.861C55.6469 61.5047 55.6469 61.1273 55.6469 60.771C55.5404 60.6871 55.4765 60.6661 55.3912 60.6452ZM84.5569 66.389C85.686 65.4666 86.6447 64.691 87.6673 63.8734C86.6447 62.5947 85.686 61.3789 84.5569 59.9744C84.5569 62.1964 84.5569 64.1669 84.5569 66.389Z" fill="#062C6B"/>
<path d="M69.9634 39.7453C63.0182 39.7243 57.4578 34.1902 57.4791 27.3353C57.5004 20.5853 63.1886 15.1141 70.0912 15.156C76.9939 15.1979 82.5969 20.7531 82.533 27.524C82.4904 34.295 76.866 39.7663 69.9634 39.7453Z" fill="#062C6B"/>
</g>
<defs>
<clipPath id="clip0_33_516">
<rect width="98" height="81" fill="white"/>
</clipPath>
</defs>
</svg>
