<svg width="89" height="91" viewBox="0 0 89 91" fill="none" xmlns="http://www.w3.org/2000/svg">
<path d="M29.3292 49.4305C27.9968 46.5947 26.3978 43.8973 25.1986 40.9923C22.9334 35.3899 21.3345 29.6491 21.3345 23.5625C21.4011 11.3894 30.9282 0.737847 42.3874 0.0461897C55.0457 -0.714634 65.5722 8.00025 67.1711 20.5193C67.9706 26.8825 66.5049 32.8999 64.3064 38.779C63.1071 41.9606 61.6414 45.0039 59.9759 47.9781C59.7094 48.4622 59.5095 48.9464 59.243 49.4305C55.179 56.2088 50.582 62.572 45.3854 68.4511C44.5859 69.3503 44.1862 69.2119 43.4533 68.4511C38.0569 62.6412 33.4599 56.2779 29.3292 49.4305ZM33.3266 24.6692C33.3266 31.0324 38.3234 36.2199 44.5193 36.2199C50.582 36.2199 55.5787 31.0324 55.5787 24.6692C55.5787 18.2368 50.6486 13.1185 44.4527 13.1185C38.2567 13.1185 33.26 18.2368 33.3266 24.6692Z" fill="#FF2C34"/>
<path d="M29.3292 49.4304C33.3932 56.2778 38.0568 62.6411 43.3866 68.451C44.1195 69.281 44.5192 69.3501 45.3187 68.451C50.5153 62.5719 55.1123 56.2086 59.1763 49.4304C63.6401 49.4304 68.0372 49.3612 72.5009 49.4304C75.5656 49.4304 77.6309 51.0212 78.6302 53.9953C79.563 56.6928 80.4291 59.3903 81.3618 62.0877C78.2971 63.1944 75.2325 64.3702 72.2344 65.4769C67.9706 67.0677 63.7067 68.7276 59.4428 70.3876C58.6433 70.6643 57.9105 70.9409 57.111 71.2176C49.4493 74.1226 41.7211 76.9584 34.0594 79.8633C26.3977 71.9784 18.6695 64.0935 11.0078 56.2778C10.6081 55.8628 10.2083 55.517 9.80859 55.1712C11.0078 50.952 12.9399 49.4304 17.2038 49.4304C21.2678 49.3612 25.3318 49.4304 29.3292 49.4304Z" fill="#07C8F9"/>
<path d="M34.0593 79.8634C41.721 76.9584 49.4493 74.1226 57.1109 71.2177C57.9104 70.941 58.6432 70.6644 59.4427 70.3877C62.6406 76.7509 65.8385 83.1142 69.0364 89.4774C69.7027 90.8608 69.7027 90.8608 68.1703 90.8608C52.6472 90.8608 37.124 90.8608 21.6008 90.8608C16.4708 90.8608 11.3409 90.8608 6.14426 90.8608C5.94439 90.8608 5.6779 90.7916 5.47803 90.7916C5.81114 90.6533 6.14426 90.4458 6.47737 90.3074C10.4081 88.855 14.3389 87.4025 18.2697 85.8808C23.5329 83.875 28.7961 81.8692 34.0593 79.8634Z" fill="#5178F1"/>
<path d="M34.0593 79.8634C28.7961 81.8692 23.5329 83.875 18.3363 85.8809C14.4055 87.3333 10.4748 88.7858 6.54402 90.3075C6.2109 90.4458 5.87779 90.6533 5.54467 90.7916C1.8804 90.5841 -0.917765 86.5725 0.28145 82.7684C3.34611 73.5002 6.4774 64.3011 9.80855 55.1713C10.2083 55.5171 10.608 55.8629 11.0078 56.2779C18.6694 64.0936 26.3977 71.9785 34.0593 79.8634Z" fill="#0353A4"/>
<path d="M6.21094 90.8608C11.3409 90.8608 16.4709 90.8608 21.6675 90.8608C37.1907 90.8608 52.7138 90.8608 68.237 90.8608C69.7694 90.8608 69.7694 90.8608 69.1031 89.4775C65.9052 83.1143 62.7073 76.751 59.5094 70.3878C63.7733 68.7278 68.0372 67.0678 72.301 65.477C75.3657 64.3012 78.3637 63.1945 81.4284 62.0879C82.4944 64.4395 83.1606 66.9295 84.0267 69.3503C85.4258 73.4311 86.7582 77.6502 88.2906 81.6618C90.0894 86.2959 87.0914 91.0683 81.8948 90.9992C70.9686 90.93 60.109 90.93 49.1828 90.93C35.3252 90.93 21.4676 90.93 7.61002 90.93C7.14366 90.93 6.6773 90.8608 6.21094 90.8608Z" fill="#061A40"/>
</svg>
