<svg width="101" height="72" viewBox="0 0 101 72" fill="none" xmlns="http://www.w3.org/2000/svg">
<g clip-path="url(#clip0_33_543)">
<path d="M51.6458 72.0001C31.5932 72.0001 15.551 55.8368 15.551 35.8368C15.6329 16.0001 31.9206 -0.0815674 51.8095 6.52741e-05C71.7804 0.0816979 87.8225 16.245 87.8225 36.1633C87.6588 55.9184 71.453 72.0817 51.6458 72.0001ZM51.6458 60.0817C64.9052 60.0817 75.709 49.3062 75.7909 36.0817C75.7909 22.7756 64.987 12.0001 51.7277 12.0001C38.4684 12.0001 27.5826 22.7756 27.5826 36.0817C27.5826 49.2246 38.3865 60.0817 51.6458 60.0817Z" fill="#009FE5"/>
<path d="M0.982172 0.571411C1.55511 0.571411 2.04619 0.571411 2.61912 0.571411C2.61912 0.897942 2.61912 1.14284 2.61912 1.38774C2.61912 6.12243 2.61912 10.7755 2.61912 15.5102C2.61912 15.6735 2.61912 15.9183 2.61912 16.0816C2.61912 16.4898 2.86467 16.8163 3.27391 16.8163C3.68314 16.8163 3.92869 16.5714 4.01053 16.0816C4.01053 15.9183 4.01053 15.6735 4.01053 15.5102C4.09238 10.7755 4.09238 6.0408 4.09238 1.38774C4.09238 1.14284 4.09238 0.897942 4.09238 0.653044C4.66532 0.653044 5.1564 0.653044 5.81118 0.653044C5.81118 0.897942 5.81118 1.14284 5.81118 1.38774C5.81118 6.12243 5.81118 10.8571 5.81118 15.5918C5.81118 15.8367 5.72934 16.1632 5.89303 16.3265C6.05673 16.5714 6.30227 16.8163 6.54781 16.8163C6.79335 16.8163 7.0389 16.5714 7.20259 16.3265C7.28444 16.1632 7.28444 15.8367 7.28444 15.5918C7.28444 10.8571 7.28444 6.20406 7.28444 1.46937C7.28444 1.22447 7.28444 0.897942 7.28444 0.571411C7.85737 0.571411 8.43031 0.571411 9.00324 0.571411C9.00324 0.816309 9.00324 1.14284 9.00324 1.38774C9.00324 6.12243 9.00324 10.7755 9.00324 15.5102C9.00324 15.5918 9.00324 15.6735 9.00324 15.6735C9.00324 16.2449 9.00324 16.8163 9.73987 16.8163C10.4765 16.8163 10.4765 16.2449 10.4765 15.6735C10.4765 10.9388 10.4765 6.12243 10.4765 1.38774C10.4765 1.14284 10.4765 0.897942 10.4765 0.571411C11.0494 0.571411 11.6224 0.571411 12.1953 0.571411C12.2771 1.87753 12.359 3.10202 12.4408 4.32651C12.6864 8.57141 12.9319 12.8163 13.1775 17.0612C13.3412 20.1632 12.4408 22.8571 9.98541 24.8979C9.41248 25.3877 9.16694 26.1224 9.24879 26.8571C9.41248 34.449 9.57617 42.0408 9.73987 49.6326C9.90357 56.1632 9.98541 62.6122 10.0673 69.1428C10.0673 69.7143 9.90357 70.449 9.57617 70.9388C9.24878 71.5918 8.67585 71.9184 7.93922 71.8367C7.28444 71.8367 6.54781 71.8367 5.89303 71.8367C4.25608 71.8367 3.4376 71.0204 3.35575 69.3877C3.35575 68.1632 3.35575 67.0204 3.4376 65.7959C3.68314 55.0204 3.84684 44.2449 4.09238 33.4694C4.17423 31.2653 4.17423 29.0612 4.25608 26.8571C4.25608 25.9592 3.92869 25.2245 3.27391 24.653C0.900324 22.9388 0 20.653 0 17.9592C0 15.1837 0.245543 12.4081 0.409238 9.63264C0.572934 6.77549 0.736629 3.91835 0.900324 1.06121C0.900324 0.979574 0.982172 0.816309 0.982172 0.571411Z" fill="#009FE5"/>
<path d="M100.345 36.3266C100.509 46.1225 100.754 56.2449 101 66.2858C101 67.2653 101.082 68.3266 101 69.3062C101 69.8776 100.754 70.449 100.509 71.0204C100.182 71.5919 99.6904 71.9184 98.9538 71.9184C98.2172 71.9184 97.4805 71.9184 96.7439 71.9184C95.2706 71.9184 94.3703 71.1021 94.2885 69.6327C94.2885 68.9796 94.2885 68.4082 94.2885 67.7551C94.534 57.3878 94.8614 47.0204 95.107 36.6531C95.107 36.4082 95.107 36.0817 94.9433 35.9184C93.1426 34.5306 92.7334 32.5715 92.4878 30.449C92.1604 26.9388 92.3241 23.5102 92.8152 20.0817C93.47 15.1837 94.2066 10.3674 94.9433 5.46941C95.1888 4.16329 95.6799 2.9388 96.2528 1.71431C96.7439 0.653086 97.8079 0.326556 98.872 0.489821C99.4449 0.571454 99.8541 0.897985 99.936 1.38778C100.018 1.79594 100.182 2.28574 100.182 2.77554C100.345 13.9592 100.345 24.9796 100.345 36.3266Z" fill="#009FE5"/>
<path d="M51.564 27.5102C52.4643 26.7755 53.2828 25.8776 54.265 25.3062C58.8484 22.6123 64.9051 25.0613 66.7058 30.2857C67.688 33.0613 67.4424 35.6735 66.051 38.2041C64.5778 40.8164 62.5316 42.9388 60.3217 44.898C57.7844 47.1021 55.0016 49.0613 52.1369 50.7755C51.9732 50.8572 51.564 50.9388 51.4003 50.8572C46.8168 48.1633 42.5607 45.1429 39.1231 41.0613C37.568 39.1837 36.2585 37.1429 36.0129 34.6123C35.44 27.1021 41.9878 23.1021 47.2261 24.5715C48.863 25.0613 49.8452 25.7143 51.564 27.5102Z" fill="#FF0000"/>
</g>
<defs>
<clipPath id="clip0_33_543">
<rect width="101" height="72" fill="white"/>
</clipPath>
</defs>
</svg>
