<svg width="84" height="70" viewBox="0 0 84 70" fill="none" xmlns="http://www.w3.org/2000/svg">
<g clip-path="url(#clip0_74_129)">
<path d="M0.131148 33.7061C5.60656 35.5077 10.9508 37.3093 16.3279 39.0781C23.8689 41.6004 31.4426 44.0898 38.9836 46.6448C41.0492 47.3327 43.0164 47.3327 45.082 46.6448C57.4754 42.4848 69.9016 38.3903 82.3279 34.263C82.8197 34.0992 83.3443 33.9354 84 33.7389C84 38.9471 84 44.0243 84 49.1015C84 52.7047 84 56.3079 84 59.9111C83.9672 65.8072 79.9344 69.9345 74.0328 69.9672C69.2787 70 64.5246 69.9672 59.7705 69.9672C43.2787 69.9672 26.7869 69.9672 10.2623 69.9672C5.01639 69.9672 1.21312 66.9537 0.196722 62.1057C0.0983611 61.5816 0.0327873 61.0248 0.0327873 60.4679C0.0327873 51.8531 0.0327873 43.2054 0.0327873 34.5905C0.0327873 34.394 0.0655742 34.1319 0.131148 33.7061Z" fill="#062C6B"/>
<path d="M27.967 10.5145C27.967 9.20426 27.9342 8.18882 27.967 7.14062C28.131 3.04609 30.9506 0.163547 35.0818 0.0652786C39.672 -0.03299 44.2621 -0.03299 48.8523 0.0652786C53.049 0.130791 55.8687 3.04609 56.0326 7.23889C56.0654 8.25433 56.0326 9.30253 56.0326 10.5473C56.7539 10.5473 57.3441 10.5473 57.9342 10.5473C63.1801 10.5473 68.4261 10.5473 73.672 10.5473C79.967 10.58 83.9998 14.609 83.9998 20.8982C83.9998 22.9619 84.0654 25.0583 83.967 27.1219C83.9343 27.6132 83.4424 28.3339 83.0162 28.4649C69.7703 32.9198 56.5572 37.3418 43.2785 41.6984C42.5244 41.9605 41.508 41.9277 40.7539 41.6657C27.5408 37.3418 14.4261 32.9198 1.24572 28.5959C0.294904 28.3011 -0.0657519 27.8753 -0.00017816 26.8926C0.0653956 24.7635 -0.000178161 22.6343 0.0326087 20.5051C0.0653956 14.7401 4.13097 10.58 9.93425 10.5473C15.2785 10.4818 20.6556 10.5473 25.9998 10.5473C26.59 10.5145 27.1802 10.5145 27.967 10.5145ZM48.8851 7.20613C44.1965 7.20613 39.7047 7.20613 35.2129 7.20613C35.2129 8.3526 35.2129 9.40079 35.2129 10.4162C39.8359 10.4162 44.3277 10.4162 48.8851 10.4162C48.8851 9.30253 48.8851 8.28708 48.8851 7.20613Z" fill="#009FE5"/>
<path d="M42.0328 35.7043C43.3909 35.7043 44.4918 34.6044 44.4918 33.2475C44.4918 31.8907 43.3909 30.7908 42.0328 30.7908C40.6747 30.7908 39.5738 31.8907 39.5738 33.2475C39.5738 34.6044 40.6747 35.7043 42.0328 35.7043Z" fill="#062C6B"/>
</g>
<defs>
<clipPath id="clip0_74_129">
<rect width="84" height="70" fill="white"/>
</clipPath>
</defs>
</svg>
