<svg width="100" height="100" viewBox="0 0 100 100" fill="none" xmlns="http://www.w3.org/2000/svg">
<g clip-path="url(#clip0_32_507)">
<path d="M52.9346 99.9999C52.9346 99.8871 52.9346 99.6613 52.9346 99.5485C52.9346 83.4085 52.9346 67.3814 52.9346 51.2415C52.9346 50.9029 53.0474 50.6772 53.386 50.4514C59.2551 47.1783 65.4628 44.6952 72.1219 43.2279C75.9594 42.325 79.9097 41.7607 83.8601 41.5349C86.2303 41.4221 88.6005 41.3092 90.9707 41.3092C93.0023 41.3092 94.2438 42.5507 94.2438 44.4695C94.2438 45.3724 94.2438 46.1625 94.2438 47.0654C93.5666 47.1783 92.8894 47.1783 92.2122 47.2911C87.1332 48.0812 82.9571 52.483 82.6185 57.6749C82.6185 58.1264 82.5057 58.6907 82.5057 59.1422C82.5057 62.8668 82.5057 66.7042 82.5057 70.4288C82.5057 75.6207 85.666 80.0225 90.6321 81.7155C91.1964 81.9413 91.7608 82.0541 92.3251 82.167C92.8894 82.2799 93.4538 82.2799 94.131 82.3927C94.131 82.6185 94.131 82.7313 94.131 82.9571C94.131 83.86 94.131 84.7629 94.131 85.6659C94.0181 87.1331 92.7766 88.2618 91.3093 88.2618C88.4876 88.2618 85.7788 88.4875 82.9571 88.8261C76.5237 89.6162 70.2032 91.4221 64.3341 94.1309C60.4966 95.8239 56.8849 97.8555 53.386 100.113C53.1603 99.8871 53.0474 99.8871 52.9346 99.9999Z" fill="#062C6B"/>
<path d="M46.9525 99.9999C45.9367 99.3227 44.9209 98.6455 43.9051 98.0812C38.2618 94.8081 32.3927 92.0993 26.185 90.4063C22.009 89.2776 17.72 88.4875 13.3182 88.2618C11.851 88.1489 10.3837 88.1489 8.91642 88.1489C7.11055 88.1489 5.86902 86.9074 5.86902 85.1015C5.86902 84.1986 5.86902 83.2957 5.86902 82.2799C6.65909 82.167 7.33629 82.167 8.12635 82.0541C13.2054 81.1512 17.1557 76.8622 17.6072 71.6704C17.6072 71.3318 17.72 70.9932 17.72 70.5417C17.72 66.5914 17.72 62.7539 17.72 58.8036C17.72 53.2731 13.9954 48.6455 8.69069 47.404C7.90062 47.1783 6.99769 47.1783 6.09475 47.0654C6.09475 46.9525 6.09475 46.8397 6.09475 46.7268C6.09475 45.9367 6.09475 45.1467 6.09475 44.3566C6.09475 42.5507 7.33629 41.3092 9.14216 41.3092C10.948 41.3092 12.7539 41.3092 14.5598 41.4221C17.6072 41.5349 20.5417 41.8735 23.5891 42.325C29.3453 43.2279 34.9887 44.8081 40.2934 47.1783C42.5507 48.1941 44.8081 49.4356 46.9525 50.4514C47.2911 50.5643 47.2911 50.79 47.2911 51.1286C47.2911 67.3814 47.2911 83.6343 47.2911 99.7742C47.0654 99.8871 47.0654 99.8871 46.9525 99.9999C47.0654 99.9999 47.0654 99.9999 46.9525 99.9999Z" fill="#062C6B"/>
<path d="M99.9999 71.2188C99.8871 71.5574 99.8871 71.7832 99.7742 72.1218C98.9841 74.8306 96.6139 76.5236 93.6794 76.4107C90.9706 76.2978 88.7133 74.2662 88.2618 71.5574C88.2618 71.2188 88.1489 70.8802 88.1489 70.5416C88.1489 66.7042 88.1489 62.8667 88.1489 59.0292C88.1489 56.0947 90.0677 53.8373 92.7765 53.1601C96.0496 52.4829 99.2099 54.6274 99.7742 57.9006C99.7742 58.0134 99.7742 58.1263 99.8871 58.1263C99.9999 62.4152 99.9999 66.817 99.9999 71.2188Z" fill="#009FE5"/>
<path d="M51.5801 35.3272C51.8058 35.3272 52.0316 35.3272 52.2573 35.3272C54.4018 35.3272 56.4334 35.3272 58.5779 35.553C61.2867 35.6658 65.5756 37.0202 67.6072 38.2618C66.93 38.4875 66.3657 38.6004 65.8013 38.8261C60.4966 40.4062 55.3047 42.5507 50.4514 45.3724C50.1128 45.5981 49.8871 45.5981 49.5485 45.3724C44.2438 42.325 38.7133 40.0676 32.8442 38.4875C32.7313 38.4875 32.6185 38.3746 32.5056 38.3746C32.5056 38.3746 32.5056 38.3746 32.3927 38.2618C34.0857 37.3588 35.8916 36.6816 37.8104 36.2302C39.9548 35.6658 42.2122 35.4401 44.3566 35.4401C45.711 35.4401 47.0654 35.4401 48.307 35.4401C38.6004 34.5372 31.7155 25.9593 32.2799 16.8171C33.0699 7.33627 40.8578 -0.112944 50.2257 -7.70309e-05C59.2551 0.11279 66.7043 7.2234 67.4943 16.027C68.5101 25.9593 61.1738 34.4243 51.5801 35.3272Z" fill="#009FE5"/>
<path d="M0 64.6726C0 62.7539 0 60.8351 0 58.9164C0 55.7561 2.25734 53.273 5.41761 52.9344C8.35214 52.7087 11.0609 54.7403 11.6253 57.7877C11.7381 58.1263 11.7381 58.5778 11.7381 58.9164C11.7381 62.7539 11.7381 66.5913 11.7381 70.4288C11.7381 73.4762 9.70655 75.7335 6.88488 76.2979C3.386 76.9751 0.112867 74.2663 0 70.6545C0 68.6229 0 66.7042 0 64.6726Z" fill="#009FE5"/>
</g>
<defs>
<clipPath id="clip0_32_507">
<rect width="100" height="100" fill="white"/>
</clipPath>
</defs>
</svg>
