<svg width="136" height="115" viewBox="0 0 136 115" fill="none" xmlns="http://www.w3.org/2000/svg">
<g clip-path="url(#clip0_48_516)">
<path d="M31.7439 94.1633C32.2216 93.474 32.9648 93.58 33.6549 93.58C48.1998 93.3149 61.3645 88.8083 73.149 80.4841C84.1904 72.7432 92.4184 62.6165 97.8329 50.2098C102.08 40.4542 104.097 30.2744 103.937 19.6704C103.831 13.6792 102.557 7.84697 101.124 2.06781C100.965 1.48459 100.912 0.848355 100.806 0.265137C114.13 0.424196 123.844 6.89262 130.32 18.1328C138.442 32.2361 137.115 46.7635 130.798 61.0789C124.64 75.0231 114.342 85.574 102.61 94.9585C93.48 102.275 83.5534 108.32 73.149 113.622C69.7517 115.371 66.3544 115.477 62.957 113.94C51.7564 108.691 41.352 102.063 31.7439 94.1633Z" fill="#009FE5"/>
<path d="M103.938 19.6704C103.831 13.6791 102.557 7.84693 101.124 2.06777C100.965 1.48456 100.912 0.848317 100.806 0.265099C83.7128 0.318119 73.7861 10.0738 67.4161 24.8133C66.3545 22.5864 65.452 20.4126 64.3373 18.2918C55.6847 2.27985 37.0523 -4.50669 21.4458 3.12817C7.75024 9.75565 1.1148 21.473 0.106214 36.3716C-0.743123 49.0433 3.39739 60.4956 10.2452 71.0466C16.0844 80.0069 23.6753 87.3237 31.7971 94.2162C32.2748 93.527 33.018 93.633 33.7081 93.633C48.253 93.3679 61.4177 88.8612 73.2022 80.5371C84.2436 72.7962 92.4715 62.6694 97.8861 50.2628C102.133 40.4541 104.097 30.2743 103.938 19.6704Z" fill="#03BDFF"/>
</g>
<defs>
<clipPath id="clip0_48_516">
<rect width="136" height="115" fill="white"/>
</clipPath>
</defs>
</svg>
