<svg width="180" height="121" viewBox="0 0 180 121" fill="none" xmlns="http://www.w3.org/2000/svg">
<g clip-path="url(#clip0_47_492)">
<path d="M160.523 107.009C160.523 99.8371 159.539 98.8528 152.438 98.8528H136.617H46.7578C40.0781 98.8528 33.3984 98.8528 26.7187 98.8528C21.375 98.8528 19.8984 100.4 19.8281 105.813V113.899C19.8984 119.453 21.375 121 26.9297 121H45.9141H90.1406C104.555 121 119.039 121 133.453 121C140.344 121 147.164 121 154.055 121C158.836 121 160.453 119.383 160.523 114.742C160.594 112.141 160.523 109.61 160.523 107.009Z" fill="#062C6B"/>
<path d="M177.891 21.936C174.586 17.366 168.188 16.241 163.477 19.4049C158.695 22.5688 157.43 29.1074 160.594 33.9586C161.086 34.8023 161.789 35.5757 162.492 36.56C157.922 41.1301 153.563 45.7001 148.992 50.0592C147.094 51.8872 145.055 53.2933 142.945 54.2073C135 57.793 125.859 55.5432 119.883 47.739C115.594 42.1847 111.445 36.4897 107.227 30.8651C104.063 26.5763 100.828 22.2172 97.7344 18.069C101.602 11.7413 101.32 6.60885 97.1016 2.81222C93.375 -0.562565 87.8907 -0.914104 83.8125 1.96852C78.961 5.3433 78.3985 10.1242 82.0547 18.4909C74.6016 28.4043 67.2891 38.388 59.625 48.1609C56.5313 52.0981 52.5938 54.4886 48.375 55.4026C42.4688 56.6681 36.0703 54.8401 31.0078 49.9889C26.4375 45.6298 21.9375 41.2004 17.2266 36.7007C17.8594 35.7867 18.0703 35.5054 18.2813 35.3648C22.5703 29.8808 21.9375 23.3421 16.8047 19.6158C12.0235 16.1707 5.20316 17.366 1.89847 22.2172C-1.68746 27.4903 -0.140588 33.7477 5.69535 37.6147C6.5391 38.1771 7.31254 39.2317 7.59379 40.2161C11.1797 54.2776 14.625 68.3392 18.1407 82.4008C19.4063 87.463 20.461 88.2364 25.7344 88.2364C32.9063 88.2364 40.0079 88.2364 47.1797 88.2364L46.7579 98.8529H136.617L138.094 88.0958C143.508 88.0958 148.922 88.0958 154.266 88.0958C159.539 88.0958 160.875 87.0412 162.141 82.0493C165.516 68.6205 168.891 55.262 172.125 41.8331C172.688 39.6536 173.531 38.0365 175.57 36.6303C180.563 33.2556 181.336 26.6466 177.891 21.936Z" fill="#009FE5"/>
</g>
<defs>
<clipPath id="clip0_47_492">
<rect width="180" height="121" fill="white"/>
</clipPath>
</defs>
</svg>
