<svg width="40" height="58" viewBox="0 0 40 58" fill="none" xmlns="http://www.w3.org/2000/svg">
<g clip-path="url(#clip0_45_476)">
<path d="M18.015 57.8384C11.2761 56.9342 6.08843 51.9932 5.171 45.4375C4.43706 40.0767 6.35532 35.6686 10.6089 32.1808C10.759 32.0678 10.8924 31.9386 11.0259 31.8256C11.6931 31.4219 12.3603 31.0183 13.0109 30.6146C13.1777 30.5339 13.3445 30.4693 13.528 30.3885C16.2469 29.1452 19.0993 28.7092 22.1018 29.1291C23.8199 29.3713 25.4379 29.9041 26.9892 30.6469C27.0225 30.663 27.0726 30.6792 27.1059 30.6953C27.7398 31.099 28.3737 31.4865 29.0075 31.8902C31.4929 33.7955 33.3111 36.1692 34.2786 39.1079C34.5455 39.9153 34.7456 40.7226 34.8291 41.5622C33.6114 41.7722 32.9942 42.4503 32.9942 43.6129C32.9942 44.3557 32.8774 45.0823 32.744 45.8089C31.6597 51.5572 26.4387 55.9169 20.2502 56.0461C18.9158 56.0784 18.2319 56.6112 18.015 57.8384ZM27.99 43.5322C27.99 39.2694 24.4371 35.7655 20.1001 35.7655C15.6297 35.7655 12.01 39.1725 12.01 43.403C12.01 47.7627 15.5296 51.2343 19.95 51.2343C24.387 51.2343 27.99 47.795 27.99 43.5322Z" fill="#F6B631"/>
<path d="M13.0274 30.6148C12.3602 31.0184 11.693 31.4221 11.0425 31.8258C8.90734 30.7278 6.75555 29.6298 4.62043 28.5157C3.55288 27.9505 3.0191 27.0624 3.03578 25.8514C3.05246 19.1666 3.03578 12.4978 3.03578 5.81299C6.35521 5.81299 9.69133 5.81299 13.0108 5.81299C13.0108 7.9121 13.0108 9.99506 13.0108 12.0942C13.0108 18.2623 13.0108 24.4466 13.0274 30.6148Z" fill="#3867D5"/>
<path d="M2.01828 5.58686C0.600428 5.10245 -0.21692 3.72996 0.0499689 2.34131C0.316858 1.00111 1.55122 0 2.96907 0C14.2618 0 25.5546 0 36.8473 0C37.8148 0 38.6321 0.306793 39.2326 1.08185C38.532 1.40479 38.0817 1.92149 37.9649 2.6804C37.8315 3.61693 37.5479 3.85913 36.5637 3.85913C25.8214 3.85913 15.0625 3.85913 4.32019 3.85913C2.98575 3.85913 2.38525 4.31125 2.01828 5.58686Z" fill="#F6B631"/>
<path d="M2.01831 5.5868C2.38528 4.31119 3.00246 3.85907 4.33691 3.85907C15.0792 3.85907 25.8382 3.85907 36.5804 3.85907C37.5646 3.85907 37.8648 3.60072 37.9816 2.68034C38.0817 1.92143 38.5488 1.40473 39.2493 1.08179C40.0834 1.90528 40.1668 2.89025 39.7998 3.90751C39.3995 4.98936 38.5488 5.60294 37.3644 5.79671C37.2477 5.81286 37.1142 5.81286 36.9975 5.829C36.3302 5.829 35.663 5.829 34.9958 5.829C32.3269 5.829 29.6747 5.829 27.0058 5.829C22.3519 5.829 17.6814 5.829 13.0275 5.829C9.70805 5.829 6.37194 5.829 3.05251 5.829C2.68553 5.78056 2.31856 5.81286 2.01831 5.5868Z" fill="#B78824"/>
<path d="M34.9791 5.81299C35.6463 5.81299 36.3135 5.81299 36.9808 5.81299C36.9808 12.4655 36.9641 19.1181 36.9975 25.7707C36.9975 27.1109 36.4136 28.0151 35.2293 28.6287C33.1609 29.7105 31.0925 30.7924 29.0241 31.8742C28.3903 31.4706 27.7564 31.083 27.1226 30.6794C27.206 30.5179 27.3561 30.4533 27.5062 30.3887C29.6914 29.2746 31.8765 28.1443 34.0617 27.0301C34.6622 26.7233 35.0125 26.3358 35.0125 25.6253C34.9624 19.0212 34.9791 12.4171 34.9791 5.81299Z" fill="#274896"/>
<path d="M18.0149 57.8384C18.2484 56.6113 18.9323 56.0784 20.2501 56.0461C26.4386 55.9169 31.6429 51.5572 32.7438 45.8089C32.8773 45.0823 32.994 44.3557 32.994 43.6129C32.994 42.4503 33.6112 41.7722 34.8289 41.5623C35.3794 45.2922 34.5287 48.7315 32.2768 51.7672C28.9907 56.2076 24.4369 58.226 18.7989 57.9676C18.532 57.9676 18.2818 57.8869 18.0149 57.8384Z" fill="#B78824"/>
<path d="M13.0108 5.81299C17.6647 5.81299 22.3353 5.81299 26.9891 5.81299C26.9891 14.0964 26.9891 22.3637 26.9891 30.6471C25.4378 29.9043 23.8198 29.3715 22.1017 29.1292C19.1159 28.7094 16.2635 29.1454 13.5279 30.3887C13.3611 30.4694 13.1943 30.534 13.0108 30.6148C13.0108 24.4466 12.9941 18.2623 12.9941 12.0942C13.0108 9.99506 13.0108 7.9121 13.0108 5.81299Z" fill="#2D97D9"/>
<path d="M26.989 30.6471C26.989 22.3637 26.989 14.0964 26.989 5.81299C29.6579 5.81299 32.3101 5.81299 34.979 5.81299C34.979 12.4171 34.979 19.0212 34.9957 25.6253C34.9957 26.3358 34.6287 26.7395 34.0449 27.0301C31.8597 28.1443 29.6746 29.2746 27.4894 30.3887C27.3393 30.4694 27.1892 30.534 27.1058 30.6794C27.0557 30.6794 27.0224 30.6632 26.989 30.6471Z" fill="#3867D5"/>
<path d="M27.99 43.5324C27.99 47.779 24.4037 51.2345 19.9666 51.2183C15.5463 51.2183 12.01 47.7306 12.0267 43.387C12.0267 39.1565 15.6464 35.7495 20.1167 35.7495C24.437 35.7657 27.99 39.2696 27.99 43.5324ZM18.9991 41.3041C18.9991 41.4494 18.9991 41.5786 18.9991 41.6916C18.9991 43.6615 18.9991 45.6315 18.9991 47.6014C18.9991 48.102 19.1826 48.3603 19.7331 48.328C19.9166 48.3119 20.1001 48.3119 20.3002 48.328C20.8006 48.3442 21.0175 48.1343 21.0175 47.6498C21.0175 45.0017 21.0175 42.3536 21.0008 39.6894C21.0008 38.8497 20.3002 38.4299 19.4996 38.7851C18.8657 39.0758 18.2318 39.3987 17.6147 39.7055C16.764 40.1092 16.7306 40.2545 17.1309 41.0457C17.5146 41.7885 17.6647 41.8369 18.432 41.4817C18.5821 41.401 18.7323 41.2718 18.9991 41.3041Z" fill="#B78824"/>
<path d="M18.999 41.3039C18.7322 41.2716 18.582 41.4008 18.4152 41.4815C17.6479 41.8367 17.4978 41.7883 17.1141 41.0455C16.6971 40.2543 16.7472 40.1252 17.5979 39.7053C18.2317 39.3985 18.8489 39.0756 19.4828 38.785C20.2834 38.4297 20.984 38.8334 20.984 39.6892C21.0007 42.3373 20.984 44.9854 21.0007 47.6497C21.0007 48.1341 20.7839 48.3601 20.2834 48.3278C20.1 48.3117 19.9165 48.3117 19.7163 48.3278C19.1825 48.3601 18.9824 48.1018 18.9824 47.6012C18.999 45.6313 18.9824 43.6614 18.9824 41.6914C18.999 41.5784 18.999 41.4492 18.999 41.3039Z" fill="#F6B631"/>
</g>
<defs>
<clipPath id="clip0_45_476">
<rect width="40" height="58" fill="white"/>
</clipPath>
</defs>
</svg>
