<svg width="140" height="138" viewBox="0 0 140 138" fill="none" xmlns="http://www.w3.org/2000/svg">
<g clip-path="url(#clip0_48_496)">
<path d="M90.1249 119.513C88.6483 123.645 89.1405 128.05 88.6483 132.291C88.2108 136.206 86.6796 137.946 82.6327 137.946C74.6483 137.946 66.6093 137.837 58.6249 138C53.5936 138.109 51.8983 137.13 51.4061 130.931C51.0233 126.038 51.0233 121.09 49.8749 116.251C50.203 111.574 49.328 106.898 49.164 102.222C49.1093 101.026 48.7811 100.319 47.4686 100.265C46.4843 100.21 45.4999 100.047 44.5155 99.9928C40.6327 99.8841 39.3202 98.6335 39.3202 94.7186C39.3202 85.9645 39.2655 77.156 39.3202 68.4018C39.3749 57.5271 46.1561 49.1536 56.9843 46.598C65.5155 45.4018 74.1015 46.3262 82.6327 46.0543C83.0155 46.2174 83.3983 46.4893 83.8358 46.598C94.4999 49.7517 100.625 57.799 100.68 68.7824C100.68 76.6666 100.68 84.4964 100.68 92.3806C100.68 99.5035 100.297 99.9385 93.0233 100.265C91.3827 100.319 90.8358 100.863 90.7811 102.494C90.7811 108.203 89.578 113.804 90.1249 119.513Z" fill="#009FE5"/>
<path d="M56.9844 46.6525C46.2109 49.2081 39.4297 57.5272 39.3203 68.4563C39.2656 77.2105 39.3203 86.019 39.3203 94.7731C39.3203 98.688 40.6328 99.9386 44.5156 100.047C45.5 100.047 46.4844 100.265 47.4688 100.319C48.7813 100.374 49.1094 101.08 49.1641 102.277C49.2734 106.953 50.2031 111.575 49.875 116.305C49.6563 119.078 49.4375 121.905 49.2188 124.679C49 127.723 47.4688 129.246 44.2969 129.3C35.2734 129.355 26.3047 129.355 17.2813 129.3C14.3828 129.3 12.7969 127.995 12.5234 125.168C11.9219 119.622 11.4844 114.021 11.0469 108.421C10.6641 103.473 10.2266 98.5249 9.95313 93.5769C9.84376 92.1632 9.35157 91.6194 7.98438 91.7282C7.00001 91.7826 5.96094 91.7826 4.97657 91.7282C1.80469 91.5651 0.10938 89.8795 0.10938 86.7802C0.0546929 77.3736 -0.0546821 67.967 0.164068 58.5603C0.382818 48.0663 9.24219 38.8771 19.7969 38.0072C27.3438 37.409 34.8906 37.2459 42.3828 38.0615C48.4531 38.6596 53.5938 41.2696 56.9844 46.6525Z" fill="#0353A4"/>
<path d="M90.125 119.513C89.5781 113.804 90.7266 108.203 90.7812 102.548C90.7812 100.917 91.3281 100.428 93.0234 100.319C100.297 99.9928 100.68 99.5578 100.68 92.4349C100.68 84.5507 100.68 76.721 100.68 68.8368C100.625 57.8533 94.5 49.8061 83.8359 46.6524C83.3984 46.5437 83.0703 46.2718 82.6328 46.1087C87.1719 40.3994 93.1328 37.5176 100.352 37.4633C107.242 37.4633 114.187 36.8108 121.078 37.8439C131.961 39.4751 139.836 48.5011 139.945 59.4845C140 68.3474 140 77.2103 139.945 86.0732C139.945 89.7706 138.359 91.4018 134.75 91.6193C129.937 91.8912 129.992 91.8912 129.609 96.6217C128.898 105.92 128.187 115.163 127.422 124.461C127.148 127.723 125.672 129.137 122.336 129.191C113.805 129.246 105.219 129.191 96.6875 129.191C92.3125 129.191 91.2187 128.267 90.6172 124.026C90.3437 122.558 90.2891 121.035 90.125 119.513Z" fill="#062C6B"/>
<path d="M13.1797 17.5083C13.1797 7.93857 21.3282 -0.0543419 31.0078 3.16509e-05C40.4688 0.0544052 48.5625 8.15606 48.5625 17.5627C48.6172 27.1868 40.4688 35.2341 30.7891 35.2341C21.1094 35.2341 13.125 27.1868 13.1797 17.5083Z" fill="#0353A4"/>
<path d="M108.883 35.2341C99.3125 35.2341 91.3282 27.4043 91.2735 17.8345C91.2188 7.93856 99.2032 -0.0543419 109.047 3.16383e-05C118.508 0.0544052 126.602 8.10169 126.656 17.5627C126.711 27.078 118.563 35.1797 108.883 35.2341Z" fill="#062C6B"/>
<path d="M69.9452 43.4444C60.9218 44.0968 52.2812 36.4845 52.1718 26.4254C52.0624 16.4751 59.8827 8.59093 69.9452 8.6453C79.6796 8.69967 87.3359 16.4751 87.5546 26.2623C87.7734 35.7233 78.4218 44.4231 69.9452 43.4444Z" fill="#009FE5"/>
</g>
<defs>
<clipPath id="clip0_48_496">
<rect width="140" height="138" fill="white"/>
</clipPath>
</defs>
</svg>
