<svg width="81" height="78" viewBox="0 0 81 78" fill="none" xmlns="http://www.w3.org/2000/svg">
<g clip-path="url(#clip0_13_255)">
<path d="M40.3455 51.0359V48.367C42.174 48.367 44.0025 47.8767 45.831 46.9508C45.2412 49.3474 42.8228 51.0359 40.3455 51.0359Z" fill="#0353A4"/>
<path d="M46.4209 61.1668C44.3564 61.1668 42.351 61.1668 40.2865 61.1668V52.452C41.4072 52.452 42.5869 52.1797 43.7666 51.5806V53.7593C43.7666 54.6307 43.7666 55.4477 43.7666 56.3192C43.7666 57.5175 44.2385 58.28 45.3002 58.9881C45.5361 58.7158 45.6541 58.4979 45.8311 58.3345C46.3619 57.7898 47.0697 57.6809 47.7775 57.9532C48.5443 58.2256 48.9572 58.7703 48.9572 59.5328C48.8983 60.2953 48.5443 60.84 47.7186 61.0579C47.3647 61.1668 46.8928 61.1668 46.4209 61.1668Z" fill="#0353A4"/>
<path d="M55.2686 63.5088L52.4963 77.8882H40.3455V62.2561H53.8529C55.0326 62.2561 55.2686 62.4195 55.2686 63.5088Z" fill="#0353A4"/>
<path d="M47.4236 44.3909C45.1232 46.0794 42.7638 46.9508 40.3455 46.9508V4.13953H63.3495C63.3495 5.22887 63.4085 6.31822 63.3495 7.3531C62.4647 18.1376 59.5745 28.3775 53.558 37.7459C51.8475 40.3058 49.901 42.539 47.4236 44.3909Z" fill="#0353A4"/>
<path d="M63.3495 0H40.3455V2.45103H63.3495V0Z" fill="#0353A4"/>
<path d="M58.1589 33.2796C59.2796 32.8438 60.3413 32.3536 61.344 31.8634L60.5772 35.7306C58.9257 36.3842 57.2151 36.9833 55.3866 37.4735C56.1534 36.1119 56.8612 34.9136 57.569 33.6608C57.746 33.4974 57.9819 33.3885 58.1589 33.2796Z" fill="#0353A4"/>
<path d="M66.5346 5.28333L65.9448 8.44243H64.8831V5.28333H66.5346Z" fill="#0353A4"/>
<path d="M40.3455 62.2561V77.8882H21.8833C21.5294 77.8882 21.1755 77.8882 20.8805 77.8882C20.2317 77.8882 19.9368 77.5614 19.9958 76.9623C19.9958 75.873 19.9958 74.7836 19.9958 73.6943C19.9958 73.0407 20.2907 72.7683 20.9985 72.7683C22.4141 72.7683 23.7708 72.7683 25.2454 72.7683C25.2454 72.3871 25.3044 72.0602 25.3044 71.7334C25.3044 69.0101 25.3044 66.3412 25.3044 63.6178C25.3044 62.3651 25.4813 62.2017 26.779 62.2017H40.3455V62.2561Z" fill="#009FE5"/>
<path d="M0 5.28333C5.24963 5.28333 10.3813 5.28333 15.5719 5.28333C15.5719 6.3182 15.5719 7.35308 15.5719 8.44243C11.62 8.44243 7.72699 8.44243 3.65705 8.44243C3.71603 9.09604 3.77502 9.64071 3.834 10.1854C4.89572 16.9938 7.72699 23.0397 13.2126 27.9417C15.8079 30.2838 18.8161 31.9723 22.1192 33.2795C22.5321 33.4429 22.886 33.7697 23.122 34.151C23.7708 35.1859 24.3607 36.2752 25.0095 37.528C17.6954 35.6216 11.7379 32.1357 7.3141 26.6345C2.18243 20.2618 0.117969 13.0721 0 5.28333Z" fill="#009FE5"/>
<path d="M40.3455 0H17.1646V2.45103H40.3455V0Z" fill="#009FE5"/>
<path d="M40.3455 52.452V61.2213C38.0451 61.2213 35.7447 61.2213 33.4443 61.2213C32.2056 61.2213 31.3798 60.4042 31.4978 59.4238C31.6157 58.4434 32.5595 57.6264 33.6212 57.8988C34.2111 58.0622 34.7419 58.5524 35.3318 58.9336C36.2165 58.389 36.6884 57.4085 36.6884 56.2647C36.6884 54.7396 36.6884 53.269 36.6884 51.635C37.9271 52.1252 39.1068 52.452 40.3455 52.452Z" fill="#009FE5"/>
<path d="M40.3455 48.4214V51.0903H40.2865C37.6322 51.0903 35.2138 49.4018 34.683 47.0598C36.5705 47.9312 38.458 48.4214 40.3455 48.4214Z" fill="#009FE5"/>
<path d="M40.3455 4.13953V47.0053C37.8682 47.0053 35.3908 46.1338 33.0314 44.3364C29.3744 41.5586 26.8381 37.9637 24.7736 34.0965C19.8779 24.8916 17.4005 15.0875 17.1056 4.8476C17.1056 4.6842 17.1056 4.5208 17.1056 4.3574C17.1056 4.30293 17.1646 4.24846 17.2236 4.13953H40.3455Z" fill="#009FE5"/>
<path d="M80.514 5.28333C80.455 12.3096 78.6855 18.8457 74.5566 24.7826C71.0175 29.7936 66.4167 33.3885 60.6952 35.7306L61.462 31.8634C70.0148 27.506 74.7335 20.3708 76.5621 11.2747C76.739 10.4033 76.857 9.47731 76.9749 8.44243H65.9448L66.5347 5.28333H80.514Z" fill="#062C6B"/>
<path d="M60.5772 73.8032C60.5182 74.8381 60.5182 75.873 60.5772 76.8534C60.5772 77.5614 60.2823 77.8338 59.5155 77.8338C59.3386 77.8338 59.1616 77.8338 58.9846 77.8338H52.4963L55.2686 63.4544V63.5089C55.2686 66.2867 55.2686 69.0101 55.2686 71.7879C55.2686 72.1147 55.3276 72.387 55.3276 72.7683C56.7432 72.7683 58.0999 72.7683 59.4565 72.7683C60.2823 72.7683 60.6362 73.0407 60.5772 73.8032Z" fill="#062C6B"/>
</g>
<defs>
<clipPath id="clip0_13_255">
<rect width="80.514" height="77.8883" fill="white"/>
</clipPath>
</defs>
</svg>
