<svg width="57" height="78" viewBox="0 0 57 78" fill="none" xmlns="http://www.w3.org/2000/svg">
<g clip-path="url(#clip0_14_305)">
<path d="M49.2237 71.3156C49.6204 74.1338 47.2928 76.8122 44.1452 77.1616C40.7861 77.5342 37.8766 75.5079 37.4534 72.5966C36.5805 66.8671 35.7076 61.1377 34.8348 55.4315C34.6496 54.2903 34.4909 53.149 34.3058 51.9379H33.6974C29.5977 51.9379 25.5243 51.9146 21.4246 51.9146L14.8385 19.4476C16.8223 17.1651 19.0441 14.9991 21.4775 12.9263C23.9638 10.8068 27.6404 10.3643 30.7086 11.6919C33.7503 13.0194 35.6283 15.9075 35.2844 18.8653C35.2051 19.5408 34.967 20.2162 34.8083 20.8916C34.7819 21.0314 34.729 21.2177 34.7819 21.3341C36.316 24.7811 37.8766 28.2281 39.4371 31.745C39.5958 31.582 39.7281 31.4655 39.8339 31.3491C42.5318 28.6008 45.2032 25.8292 47.9011 23.0809L51.7364 31.5587C49.8585 33.4918 47.954 35.4249 46.0761 37.358C44.542 38.9185 43.0343 40.4557 41.5267 42.0161C39.252 44.3685 35.0993 43.8095 33.7768 40.9681C32.5072 38.2198 31.2905 35.4715 30.0473 32.7232C29.4125 31.3491 28.8042 29.9516 28.1694 28.5775C28.1165 28.4843 28.0636 28.3679 27.9842 28.2281C25.1276 31.0463 21.0543 38.3595 20.684 41.364H21.2659C24.9689 41.364 28.6719 41.364 32.4014 41.364C32.6923 41.364 32.8775 41.3873 33.0097 41.6435C34.9406 44.9042 39.6223 45.3467 42.3202 42.5285C42.426 42.4354 42.5053 42.3422 42.6376 42.2025C43.4575 42.6683 44.0923 43.2738 44.5684 43.9958C45.1768 44.9042 45.309 45.9057 45.4677 46.9072C46.3406 52.6832 47.2134 58.436 48.1127 64.212C48.5095 66.5644 48.8798 68.94 49.2237 71.3156Z" fill="#009FE5"/>
<path d="M55.7833 27.4363C54.4344 28.8104 53.0854 30.1845 51.7365 31.5587L47.9012 23.0809C48.245 22.7316 48.5889 22.3822 48.9327 22.0096C50.1494 20.7985 51.6836 20.3326 53.4557 20.7286C55.2279 21.1012 56.3652 22.1493 56.7884 23.7098C57.2381 25.1072 56.8413 26.3649 55.7833 27.4363Z" fill="#062C6B"/>
<path d="M21.4246 51.9146C17.6423 51.9146 13.8599 51.9146 10.0511 51.9612C6.03066 52.0078 4.4172 49.8418 3.75595 47.6059C3.22695 45.8591 3.38565 44.089 3.6766 42.3189C5.21071 33.6781 9.01952 26.1087 14.8121 19.4476L21.4246 51.9146Z" fill="#009FE5"/>
<path d="M23.1967 60.6951V78H0V52.8229H21.6097L23.1967 60.6951Z" fill="#062C6B"/>
<path d="M23.1967 52.8229V60.6951L21.6097 52.8229H23.1967Z" fill="#0353A4"/>
<path d="M56.4181 10.2712C56.4181 10.4575 56.4181 10.6205 56.3917 10.8068C56.3652 11.2028 56.3123 11.5754 56.233 11.9481C56.233 11.9947 56.2065 12.0645 56.2065 12.1111C56.1801 12.181 56.1801 12.2508 56.1536 12.3207C56.1272 12.4605 56.0743 12.6235 56.0214 12.7632C55.9949 12.8797 55.942 12.9961 55.9156 13.1126C55.8891 13.229 55.8362 13.3455 55.7833 13.462C55.6775 13.7414 55.5453 14.0209 55.413 14.2771C55.3866 14.347 55.3601 14.3936 55.3337 14.4402C55.3072 14.51 55.2543 14.5799 55.2279 14.6498C55.2014 14.7196 55.1485 14.7895 55.1221 14.8361C55.0692 14.906 55.0163 14.9991 54.9634 15.069C54.9105 15.1622 54.8576 15.232 54.8047 15.3019C54.6989 15.4649 54.5931 15.6047 54.4608 15.7677C54.4079 15.8376 54.3286 15.9308 54.2757 16.0006C54.1434 16.1637 54.0112 16.3267 53.8789 16.4664C53.826 16.5363 53.7731 16.5829 53.6938 16.6528C53.6144 16.7226 53.5615 16.7925 53.4822 16.8624C53.4293 16.9322 53.3499 16.9788 53.297 17.0487C53.2177 17.1186 53.1383 17.1884 53.059 17.2583C52.9796 17.3282 52.9003 17.3981 52.8474 17.4446C52.768 17.5145 52.6887 17.5611 52.6093 17.631C52.53 17.7008 52.4506 17.7474 52.3713 17.8173C52.2655 17.8872 52.1861 17.957 52.0803 18.0269C52.001 18.0735 51.9481 18.1201 51.8687 18.1666C51.8158 18.2132 51.7629 18.2365 51.6836 18.2831C51.6042 18.3297 51.5513 18.3763 51.472 18.3995C51.4191 18.4461 51.3397 18.4694 51.2868 18.516C51.2339 18.5393 51.181 18.5859 51.1281 18.6092C51.0488 18.6557 50.943 18.7023 50.8636 18.7489C50.7578 18.8188 50.6256 18.8654 50.4933 18.9352C50.0965 19.1216 49.6998 19.3079 49.303 19.4476C49.1972 19.4942 49.0914 19.5175 49.0121 19.5408C48.9856 19.5641 48.9327 19.5641 48.9063 19.5874C48.774 19.6339 48.6682 19.6572 48.536 19.7038C48.4831 19.7271 48.4037 19.7504 48.3508 19.7504C48.1921 19.797 48.0334 19.8436 47.8483 19.8669C47.7689 19.8901 47.6896 19.9134 47.6102 19.9134C47.3722 19.96 47.1077 20.0066 46.8432 20.0532C46.7638 20.0765 46.6845 20.0765 46.5787 20.0998L38.3792 1.93314C38.6172 1.77011 38.8552 1.63036 39.1198 1.51391C39.2256 1.44404 39.3314 1.39746 39.4636 1.35088C39.6223 1.281 39.7546 1.21113 39.9133 1.14126C40.1778 1.02481 40.4423 0.908356 40.7068 0.815194C40.839 0.768613 40.9448 0.722032 41.0771 0.698741C41.1829 0.67545 41.2887 0.628869 41.3945 0.605579C41.6325 0.535707 41.8706 0.465836 42.1351 0.419255C42.2409 0.395964 42.3467 0.372673 42.426 0.349383C42.7699 0.279511 43.1137 0.20964 43.484 0.163059C43.5634 0.139768 43.6427 0.139768 43.7221 0.139768C43.9337 0.116478 44.1453 0.093187 44.3569 0.093187C44.4362 0.093187 44.5156 0.093187 44.5949 0.093187C44.6478 0.093187 44.6743 0.093187 44.7272 0.093187C44.8065 0.093187 44.8859 0.093187 44.9652 0.093187C45.071 0.093187 45.1768 0.093187 45.2562 0.093187C51.4191 0.0233154 56.4446 4.65813 56.4181 10.2712Z" fill="#062C6B"/>
<path d="M39.0933 1.4906C38.8552 1.63034 38.5907 1.77009 38.3527 1.90983C38.6172 1.77009 38.8552 1.63034 39.0933 1.4906Z" fill="#0353A4"/>
<path d="M46.6051 20.1463C46.5522 20.1463 46.4993 20.1696 46.4464 20.1696C46.3935 20.1696 46.3406 20.1929 46.2877 20.1929C46.2613 20.1929 46.2348 20.1929 46.2084 20.1929C46.1555 20.1929 46.1026 20.1929 46.0497 20.2162C45.9703 20.2162 45.8645 20.2395 45.7852 20.2395C45.6794 20.2395 45.5736 20.2395 45.4678 20.2628H45.4413C45.3091 20.2628 45.1768 20.2628 45.0446 20.2628H44.9652C38.6437 20.2395 33.5917 15.6745 33.6446 10.0615C33.6446 9.94506 33.6446 9.8519 33.6446 9.75874C33.6446 9.43267 33.6975 9.1066 33.7239 8.78053C33.7239 8.71066 33.7504 8.66408 33.7504 8.6175C33.7504 8.54763 33.7768 8.47776 33.7768 8.43118C33.8033 8.36131 33.8033 8.26814 33.8297 8.19827C33.8297 8.15169 33.8562 8.10511 33.8562 8.03524C34.1207 6.96387 34.5439 5.96238 35.1522 5.05405C35.2051 4.96089 35.2845 4.86772 35.3374 4.77456C35.4961 4.54166 35.6812 4.30875 35.8664 4.07585C35.9193 4.00597 35.9722 3.9361 36.0515 3.86623C36.078 3.81965 36.1309 3.77307 36.1573 3.72649C36.2896 3.56345 36.4483 3.42371 36.607 3.26068C36.6863 3.19081 36.7657 3.12093 36.845 3.05106C36.9244 2.98119 37.0037 2.91132 37.0831 2.84145C37.1624 2.77158 37.2418 2.7017 37.3211 2.63183C37.4005 2.56196 37.4798 2.51538 37.5592 2.44551C37.6385 2.37564 37.7179 2.32906 37.7972 2.25918C37.8766 2.18931 37.9824 2.14273 38.0617 2.07286C38.1411 2.00299 38.2469 1.95641 38.3262 1.88654L46.6051 20.1463Z" fill="#062C6B"/>
</g>
<defs>
<clipPath id="clip0_14_305">
<rect width="57" height="78" fill="white"/>
</clipPath>
</defs>
</svg>
