<svg width="60" height="80" viewBox="0 0 60 80" fill="none" xmlns="http://www.w3.org/2000/svg">
<g clip-path="url(#clip0_14_319)">
<path d="M18.2957 11.074C18.3204 5.27331 23.4877 0.504376 29.6934 0.527304C35.9485 0.550232 41.0911 5.3421 41.0664 11.0969C41.0169 16.9205 35.9238 21.6436 29.6687 21.6436C23.4135 21.6207 18.271 16.8517 18.2957 11.074Z" fill="#009FE5"/>
<path d="M45.9121 11.1199L44.3792 61.2854C44.2309 61.2166 44.0331 61.1708 43.7364 61.2166C42.9452 61.3313 42.698 61.6752 42.5002 62.363C41.5607 65.6416 40.6954 68.9432 39.5086 72.1301C38.2971 75.34 36.2945 78.0913 32.5365 79.2148C31.77 79.444 30.9541 79.6045 30.163 79.8109H26.9489C23.4628 79.2377 20.0756 78.3435 16.8863 76.8762C15.8479 76.3947 14.8095 75.9591 13.8205 75.4088C11.8673 74.3312 11.1998 72.2906 12.1393 70.4564C13.1035 68.5993 15.2545 67.8656 17.4549 68.5534C20.4465 69.4706 23.4628 70.3189 26.4791 71.1672C26.8994 71.2818 27.3692 71.2589 27.8389 71.2818C28.8773 71.3506 29.6191 70.9608 29.8168 69.975C30.3608 67.2924 30.88 64.587 31.3745 61.8815C31.5228 61.0561 31.5722 60.2078 31.597 59.3824C31.6464 57.2731 32.0667 55.1637 31.2014 53.0544C30.7811 52.0227 30.9047 50.7846 30.9047 49.6611C31.0036 44.1585 30.3113 38.7705 28.2098 33.6118C28.012 33.1303 27.4928 32.603 26.9736 32.4196C19.1609 29.7141 11.3234 27.0545 3.51063 24.372C3.09033 24.2344 2.67002 24.0969 2.24972 23.9364C0.469597 23.2256 -0.39574 21.6436 0.123462 20.0616C0.667387 18.4567 2.29916 17.5625 4.22763 17.9523C6.72474 18.4567 9.1724 19.0757 11.6448 19.626C17.4055 20.8641 23.1414 22.1022 28.8526 23.3861C33.3524 24.4179 36.8879 23.111 39.5086 19.6719C41.6596 16.8288 43.7858 13.9858 45.9121 11.1199Z" fill="#009FE5"/>
<path d="M47.4451 24.6471C47.0743 25.2891 47.0496 25.7706 47.3957 26.4355C50.9312 33.4055 52.7608 40.8111 53.4531 48.4689C53.6014 50.1197 53.5519 51.8392 53.997 53.4213C54.8623 56.4706 56.1232 59.4283 57.0133 62.4776C57.0875 62.7069 57.1369 62.9362 57.2111 63.1655L49.6703 77.6328C47.9149 76.6927 46.6293 75.2254 45.6403 73.437C44.0333 70.5252 44.3794 68.9662 47.2474 66.9944C46.5056 65.3895 45.7392 63.7387 44.948 62.1108C44.7997 61.7898 44.7008 61.4688 44.4041 61.3083L45.937 11.1428C48.1127 8.231 50.2884 5.3192 52.4888 2.4074C53.2058 1.49029 54.2689 0.802465 55.159 0H56.6424C59.461 1.10052 60.0543 2.72838 58.5956 5.27334C54.887 11.7389 51.1785 18.2045 47.4451 24.6471Z" fill="#0353A4"/>
<path d="M58.3731 73.9873C58.027 77.5411 55.4557 79.3065 51.7224 78.3894C50.9559 78.206 50.2637 77.9309 49.6456 77.6099L57.1864 63.1426C58.1753 66.6734 58.744 70.296 58.3731 73.9873Z" fill="#062C6B"/>
</g>
<defs>
<clipPath id="clip0_14_319">
<rect width="59.362" height="79.788" fill="white"/>
</clipPath>
</defs>
</svg>
