<svg width="84" height="75" viewBox="0 0 84 75" fill="none" xmlns="http://www.w3.org/2000/svg">
<g clip-path="url(#clip0_14_276)">
<path d="M66.8922 21.2856L66.1917 26.9683C58.3694 20.1062 50.4303 13.2441 42.608 6.38207C42.3745 6.16764 42.141 5.9532 41.7908 5.73876V0.16333C42.4913 0.16333 43.1918 0.592209 44.009 1.23553C51.5978 7.88315 59.3034 14.5308 66.8922 21.2856Z" fill="#0353A4"/>
<path d="M70.9784 38.9768C70.9784 50.1277 70.9784 61.2786 70.9784 72.3222C70.9784 74.0377 70.7449 74.2521 68.8769 74.2521H60.1206L65.4911 32.0076C66.7754 33.187 68.0597 34.3664 69.4607 35.4386C70.6282 36.5108 70.9784 37.4758 70.9784 38.9768Z" fill="#062C6B"/>
<path d="M82.6535 38.2264C81.486 39.2986 80.085 39.0841 78.4505 37.6903C74.3642 34.152 70.2779 30.5065 66.1917 26.9683L66.8922 21.2856C71.9124 25.6817 76.9327 30.0777 81.953 34.3664C83.5875 35.8675 83.821 37.1542 82.6535 38.2264Z" fill="#062C6B"/>
<path d="M65.4912 32.0076L60.2374 74.2522H50.4303V53.1299C50.4303 51.6288 50.0801 51.3072 48.5623 51.3072H41.7908V11.3142C42.141 11.3142 42.4913 11.5286 43.075 12.0647C50.5471 18.7124 58.0191 25.36 65.4912 32.0076Z" fill="#0353A4"/>
<path d="M41.7907 11.3142V51.4144H35.0192C33.5014 51.4144 33.1512 51.736 33.1512 53.1299V74.3594H31.9837C26.1461 74.3594 20.3086 74.3594 14.471 74.3594C12.8365 74.3594 12.603 74.0377 12.603 72.6439C12.603 61.0642 12.603 49.4844 12.603 37.9047C12.603 37.1542 12.8365 36.6181 13.4203 36.082C22.5268 28.0405 31.5167 20.1062 40.6232 12.0647C40.9735 11.5286 41.4405 11.3142 41.7907 11.3142Z" fill="#009FE5"/>
<path d="M41.7907 0.16333V5.73875C40.3897 6.91817 39.1055 8.09759 37.7044 9.277C26.7299 18.8196 15.7553 28.3621 4.78072 37.9047C4.31371 38.3335 3.72996 38.6552 3.14621 38.7624C2.09545 39.0841 0.927942 38.548 0.460938 37.6902C-0.122816 36.7252 -0.00606493 35.653 0.927942 34.9025C3.61321 32.5437 6.41523 30.0776 9.1005 27.7188C9.68425 27.1827 9.91775 26.6466 9.91775 25.8961C9.91775 20.7495 9.91775 15.603 9.91775 10.3492V9.16978H22.4101V16.0318C22.7603 15.7102 22.9938 15.603 23.2273 15.4957C28.7146 10.6709 34.0852 5.95319 39.5725 1.23553C40.3897 0.592209 41.0902 0.16333 41.7907 0.16333Z" fill="#009FE5"/>
</g>
<defs>
<clipPath id="clip0_14_276">
<rect width="83.2433" height="74.0888" fill="white" transform="translate(0.110718 0.16333)"/>
</clipPath>
</defs>
</svg>
