<svg width="141" height="92" viewBox="0 0 141 92" fill="none" xmlns="http://www.w3.org/2000/svg">
<g clip-path="url(#clip0_36_24)">
<path d="M74.5252 0.307996L71.7947 4.3595C69.9115 4.24104 67.9578 4.28842 65.9569 4.47797C53.2222 5.71 45.2424 13.2207 40.2521 24.5223C38.2983 28.9292 37.0978 33.573 36.2269 38.3116C36.1092 38.9513 36.2975 39.3067 36.886 39.6147C38.2748 40.3729 38.8868 41.6049 38.675 42.9081C38.4396 44.3533 37.5215 45.1826 35.8267 45.4432C31.7544 46.0355 27.6821 46.5805 23.6098 47.1491C22.0798 47.3623 20.8793 46.77 19.8436 45.6564C17.9604 43.5951 16.0302 41.5812 14.1235 39.5436C13.8646 39.2593 13.6528 38.9276 13.4174 38.5959C13.3232 38.667 13.229 38.7381 13.1349 38.8092C13.2526 39.0935 13.3467 39.4015 13.5115 39.6858C15.0886 42.6237 16.7129 45.5617 18.29 48.4996C19.2786 50.3477 20.8087 51.3191 22.8331 51.6745C23.3038 51.7692 23.8923 52.2194 24.0571 52.6459C26.1521 57.7873 28.2 62.9287 30.2479 68.0937C30.9776 69.9418 30.4598 71.7662 30.2244 73.5905C29.5888 78.5424 28.8591 83.4942 28.1765 88.446C27.7763 91.384 26.1285 92.4739 23.3038 91.692C21.6326 91.2181 20.7616 90.0335 20.9499 88.0906C21.2088 85.4607 21.5855 82.8545 21.9386 80.2246C22.3387 77.2155 22.786 74.2065 23.1861 71.2212C23.2568 70.7237 23.1861 70.1787 22.9978 69.7285C21.4207 65.7007 19.7965 61.6966 18.1723 57.6688C18.1252 57.574 18.0546 57.4793 17.7721 57.1002C17.984 58.9719 18.0781 60.512 18.3371 62.0283C19.6082 69.6338 18.9726 77.2866 18.6902 84.9158C18.6431 86.0294 18.6195 87.1192 18.5489 88.2328C18.4077 90.531 16.9247 92.0237 14.8297 91.9763C12.7347 91.9289 11.2282 90.3652 11.2753 88.0906C11.3694 83.9444 11.5107 79.8218 11.7461 75.6755C12.0521 70.2261 11.2282 64.8952 10.475 59.5642C9.69816 53.9964 8.96845 48.4048 8.21519 42.8133C8.14457 42.3631 8.05042 41.9129 7.95626 41.2969C6.89699 42.1499 6.16728 42.9081 6.28498 44.2349C6.59098 48.2153 6.84992 52.172 7.17947 56.1525C7.36778 58.3796 6.35559 60.1092 4.63723 60.3224C2.87179 60.5357 1.34174 58.9482 1.15342 56.6737C0.847412 53.1434 0.541402 49.6132 0.211853 46.0829C0.188314 45.7512 0.0706177 45.3958 0 45.0641V41.2732C2.35392 38.4301 4.96678 35.7765 7.01469 32.7201C9.69816 28.7159 13.5586 28.5738 17.5838 28.787C19.514 28.9055 20.9735 30.1138 21.5619 31.9856C21.9856 33.3598 22.1269 34.8287 22.4093 36.274C22.2681 36.3214 22.1504 36.3688 22.0092 36.4399C20.3144 35.35 18.6195 34.2601 16.9247 33.1702C16.8541 33.2413 16.7835 33.3124 16.7364 33.3835C17.0659 33.7625 17.419 34.1416 17.7486 34.497C19.514 36.3451 21.2795 38.1931 23.0214 40.0649C23.5863 40.6809 24.1983 40.8704 24.9987 40.752C26.6699 40.4914 28.3412 40.2307 30.0125 40.1123C31.3072 40.0175 31.778 39.4489 31.9663 38.1931C32.7666 32.6016 34.2967 27.1759 36.6741 22.0345C40.1109 14.6186 44.9129 8.36362 52.1159 4.26473C58.2125 0.805549 64.827 -0.260637 71.724 0.0947587C72.6656 0.118452 73.6072 0.189531 74.5252 0.307996Z" fill="#009FE5"/>
<path d="M140.976 43.1924C140.623 46.9833 140.153 50.7741 139.729 54.5887C139.588 55.9155 139.423 57.2423 139.187 58.5691C139.093 59.1378 138.858 59.7064 138.552 60.1803C137.916 61.1517 136.41 61.6966 135.445 61.4123C134.338 61.0806 133.232 59.588 133.303 58.1664C133.397 56.2472 133.656 54.3281 133.868 52.409C134.127 50.1344 134.433 47.8836 134.668 45.6091C134.715 45.1115 134.668 44.377 134.362 44.069C132.008 41.7234 129.56 39.4726 126.947 37.3639C127.159 37.7193 127.347 38.0747 127.583 38.4064C129.325 41.0363 131.09 43.6189 132.785 46.2725C133.114 46.7937 133.326 47.5282 133.279 48.1205C133.114 50.632 132.808 53.1434 131.278 55.2995C130.996 55.7023 130.996 56.342 130.996 56.8869C130.972 67.2645 130.972 77.6183 130.949 87.9959C130.949 90.9812 128.971 92.4502 126.1 91.6683C124.523 91.2418 123.746 90.1756 123.722 88.3276C123.699 85.6977 123.699 83.044 123.699 80.4141C123.699 73.8985 123.675 67.4066 123.675 60.8911C123.675 60.4646 123.675 60.0618 123.44 59.5643C123.298 59.8012 123.11 60.0144 123.016 60.275C121.768 63.3314 120.45 66.3642 119.367 69.4916C119.014 70.5341 119.156 71.8135 119.297 72.9508C119.909 77.8079 120.591 82.6413 121.251 87.4746C121.557 89.7492 120.356 91.5972 118.402 91.9289C116.237 92.308 114.424 91.0049 114.071 88.6356C113.2 82.5228 112.376 76.3863 111.623 70.2498C111.529 69.5153 111.788 68.6861 112.07 67.9753C113.624 64.0659 115.177 60.1566 116.802 56.2709C118.332 52.6459 118.426 48.7839 118.92 44.8272C117.225 45.0404 115.672 45.2537 114.142 45.4195C111.105 45.7275 108.069 46.0355 105.009 46.2488C104.302 46.2962 103.526 46.1066 102.89 45.7986C101.807 45.2774 101.336 44.2586 101.383 43.0739C101.431 41.8893 102.066 41.06 103.149 40.6572C103.832 40.3966 104.185 40.136 103.996 39.3067C101.948 30.2086 98.7235 21.6317 92.4386 14.5712C86.7421 8.1504 79.798 4.90446 71.8653 4.4306L74.5958 0.379089C84.9531 1.7059 92.8858 7.29745 98.9825 16.0165C103.69 22.769 106.491 30.3271 108.163 38.3353C108.398 39.4489 108.704 39.9701 109.975 39.7332C111.388 39.4489 112.847 39.3541 114.307 39.283C116.802 39.1646 118.096 37.127 119.838 35.8002C120.121 35.5869 120.097 34.9235 120.144 34.4497C120.403 30.4455 122.263 28.6449 126.241 28.787C127.983 28.8581 129.748 29.1424 131.467 29.5215C133.609 29.9954 134.927 31.8197 135.186 34.5918C134.268 34.3075 133.467 34.0469 132.667 33.7863C132.573 33.8573 132.502 33.9047 132.432 33.9758C132.691 34.1416 132.973 34.2838 133.185 34.497C135.633 36.89 138.081 39.2593 140.482 41.6997C140.765 42.0077 141.024 42.6948 140.976 43.1924Z" fill="#0353A4"/>
<path d="M60.3546 43.0739C59.672 43.8558 58.9893 44.6614 58.3067 45.4432C57.2003 46.699 55.9292 47.5045 54.1402 47.5045C51.904 47.5045 49.6913 47.7414 47.4551 47.8362C45.4307 47.9073 44.2773 46.9122 44.1596 45.1115C44.0654 43.3819 45.1718 42.1025 47.0549 41.913C48.8439 41.7471 50.6564 41.6286 52.4454 41.5813C53.3399 41.5576 53.9755 41.2496 54.5639 40.5625C56.5412 38.2642 58.6127 36.0608 60.5664 33.7626C61.6257 32.5305 62.8497 31.9856 64.474 32.0093C67.6047 32.0804 70.7354 32.0804 73.8661 32.033C75.2549 32.0093 76.2436 32.5068 77.0439 33.6441C78.8093 36.2029 80.669 38.6907 82.4109 41.2496C82.9523 42.0551 83.5172 42.2921 84.4823 42.1025C86.4125 41.7471 88.3427 41.4628 90.2965 41.2259C92.1561 41.0126 93.592 42.0314 93.8038 43.5952C94.0628 45.5143 93.0741 46.8174 91.0733 47.1491C88.3192 47.5756 85.5651 47.931 82.8346 48.4049C81.2574 48.6892 80.0569 48.1205 79.1389 46.9122C78.4092 45.9645 77.7265 44.9694 76.7614 44.069C77.0674 45.9408 77.3735 47.8125 77.703 49.6843C78.3386 53.3804 78.9741 57.0528 79.5626 60.7489C79.6332 61.1517 79.6097 61.7677 79.3743 61.9573C78.4327 62.7154 78.7858 63.5684 79.0683 64.4213C79.3508 65.2743 79.6097 66.1272 79.9157 67.146C80.3865 66.9328 80.7631 66.7906 81.1162 66.5774C83.5878 65.1321 86.0124 63.6158 88.5311 62.2416C89.2843 61.8151 90.2259 61.5071 91.0733 61.5308C92.3915 61.5545 93.7097 62.0283 94.1805 63.4499C94.6983 65.0137 94.4865 66.5063 93.1918 67.6673C92.7917 68.0464 92.3209 68.3307 91.8501 68.615C88.0132 70.8895 84.1528 73.1641 80.2923 75.4149C77.4441 77.0971 75.1843 76.2205 74.2192 73.0693C73.3012 70.0603 72.3596 67.0513 71.5122 64.0186C71.2297 62.9998 70.7589 62.5259 69.6997 62.6917C69.5114 62.7154 69.2995 62.6917 69.1112 62.6917C67.4634 62.6917 67.4634 62.6918 67.2751 64.374C67.1574 65.4401 67.0868 66.5063 66.9456 67.5488C66.8514 68.2833 67.0868 68.6624 67.8165 68.4728C69.276 68.1175 69.8174 68.8282 70.1234 70.1787C70.4294 71.5529 70.9237 72.9034 71.371 74.2302C71.6063 74.9647 71.4651 75.3438 70.6412 75.4386C68.099 75.6992 65.5803 76.0783 63.0616 76.2442C60.5664 76.41 59.0599 74.8463 59.2482 72.3111C59.4601 69.6338 59.7897 66.9802 60.0957 64.3266C60.284 62.6681 60.2369 62.5733 58.5891 62.7391C56.8708 62.9287 55.9763 61.9573 56.4 60.2514C57.7653 54.7072 59.1306 49.163 60.4958 43.6426C60.5429 43.5004 60.5429 43.3582 60.59 43.1924C60.5194 43.1687 60.4252 43.1213 60.3546 43.0739Z" fill="#062C6B"/>
<path d="M73.5601 28.171C71.6534 29.6399 69.4407 30.4692 66.875 29.6636C66.4277 29.5215 65.8863 29.4267 65.6038 29.095C64.4033 27.7682 62.685 28.242 61.814 28.8344C59.366 30.4692 56.706 29.5452 54.2109 30.1138C54.0696 30.1375 53.9048 30.0664 53.5518 30.019C54.2579 28.1473 55.223 26.5835 56.8473 25.541C57.6711 25.0198 58.5892 24.5933 59.5072 24.3801C61.0137 24.0247 61.7434 23.1717 62.0259 21.6554C62.5202 18.907 64.1209 17.0116 66.8043 16.206C70.7119 14.9976 74.4546 17.2248 75.5609 21.3237C75.7257 21.9634 75.8434 22.6979 76.2436 23.1717C76.7144 23.7404 77.4441 24.3327 78.1267 24.4275C81.3987 24.8776 82.7404 27.3654 84.1528 29.8532C82.2225 29.8532 80.3629 30.0664 78.574 29.7821C76.9498 29.5452 75.3726 28.787 73.5601 28.171Z" fill="#062C6B"/>
<path d="M133.044 19.3809C133.044 23.5746 129.654 26.9627 125.511 26.939C121.345 26.9153 117.979 23.4798 118.002 19.3098C118.026 15.1872 121.392 11.8228 125.511 11.7991C129.678 11.7991 133.044 15.1635 133.044 19.3809Z" fill="#009FE5"/>
<path d="M16.5716 11.8228C20.7145 11.7754 24.1513 15.1872 24.1748 19.3572C24.1983 23.5272 20.8087 26.939 16.6422 26.9627C12.4993 26.9627 9.1803 23.6456 9.13322 19.4994C9.08614 15.2583 12.3816 11.8465 16.5716 11.8228Z" fill="#0353A4"/>
</g>
<defs>
<clipPath id="clip0_36_24">
<rect width="141" height="92" fill="white"/>
</clipPath>
</defs>
</svg>
