<svg width="99" height="100" viewBox="0 0 99 100" fill="none" xmlns="http://www.w3.org/2000/svg">
<g clip-path="url(#clip0_28_409)">
<path d="M99 50.9235C97.2537 56.4147 95.5319 61.8814 93.8102 67.3726C92.4574 66.9294 91.1046 66.5846 89.8256 66.0429C86.997 64.8855 84.193 65.0825 81.3645 65.9198C78.4867 66.7816 75.7319 67.9636 72.9525 69.0717C70.4437 70.0567 67.9349 71.1155 65.3031 71.7804C63.5076 72.2483 61.6629 72.593 59.7935 72.3714C58.7359 72.2483 57.752 71.9281 56.7682 71.5095C53.5461 70.1306 50.324 68.7762 47.0773 67.4219C44.4455 66.3138 41.8137 65.2549 39.2065 64.1222C37.6815 63.4819 36.4763 62.4477 35.4186 61.1426C33.8445 59.1973 32.1719 57.3258 30.524 55.4297C29.6385 54.3955 28.753 53.3859 27.8676 52.3517C27.3019 51.6868 26.9329 50.9235 26.9821 50.037C27.0313 48.5103 28.2857 47.476 29.8353 47.7223C30.1058 47.7715 30.2288 47.7223 30.3764 47.476C30.8683 46.7373 31.6308 46.6388 32.4425 46.6881C33.5985 46.7619 34.6561 47.1805 35.6646 47.7223C37.0174 48.4364 38.1242 49.4706 39.2556 50.5048C41.3709 52.4256 43.806 53.8784 46.2902 55.2327C46.6099 55.4051 46.9051 55.5529 47.2494 55.7499C47.1019 56.0207 46.9789 56.2916 46.8559 56.5625C45.9458 58.7048 46.5607 60.6748 48.5284 62.1768C49.9796 63.285 51.603 63.5804 53.3739 63.3342C55.3908 63.0387 57.3093 62.3985 59.2524 61.8075C61.7366 61.0441 64.2209 60.3054 66.7789 59.9114C68.8696 59.5913 70.9602 59.3943 73.0755 59.936C73.592 60.0591 74.0348 59.9114 74.1578 59.6405C74.2807 59.3697 74.084 59.0003 73.6166 58.7048C72.7066 58.0892 71.6735 57.8676 70.5913 57.8429C68.5498 57.7937 66.5575 58.1631 64.5898 58.6555C61.4907 59.4435 58.4161 60.3054 55.317 61.1672C53.9396 61.5366 52.5622 61.7582 51.1602 61.4874C49.955 61.2411 48.922 60.6748 48.2825 59.5667C47.6922 58.5324 47.8889 57.3258 48.799 56.5378C49.6845 55.7499 50.7667 55.3312 51.8735 55.0358C53.3739 54.6418 54.8743 54.3216 56.3747 53.9523C59.3262 53.1889 62.1302 52.0316 64.885 50.7265C67.7381 49.3721 70.5667 47.9685 73.4199 46.5649C76.0763 45.2598 78.8556 44.4718 81.8318 44.2995C85.8902 44.0779 89.7026 44.9643 93.1953 47.082C93.8102 47.4514 94.4005 47.87 94.9416 48.3379C96.1222 49.3229 97.4012 50.1355 98.8032 50.8003C98.8524 50.8003 98.9016 50.8496 99 50.9235Z" fill="#062C6B"/>
<path d="M51.7506 83.3786C52.9558 82.6891 54.1364 82.0242 55.2924 81.3347C57.3831 80.0789 59.2524 78.5768 61.0234 76.9269C62.3516 75.6957 63.9257 74.7846 65.7213 74.4153C66.287 74.2921 66.9019 74.3168 67.4922 74.366C67.9841 74.4153 68.3776 74.6861 68.6236 75.1047C68.7466 75.3264 68.8942 75.351 69.1155 75.3264C70.3945 75.1786 71.3538 75.6711 71.7965 76.7053C72.1655 77.5672 72.0671 78.4537 71.5752 79.217C70.9848 80.1035 70.2716 80.8915 69.5829 81.7041C67.6644 83.9449 65.6229 86.0873 63.8273 88.4266C62.3024 90.3965 60.3347 91.5293 58.0964 92.4404C53.6691 94.238 49.2417 96.0602 44.839 97.8824C44.0027 98.2271 43.1911 98.6211 42.404 99.0151C40.2641 100.074 38.0504 100.197 35.7384 99.8031C33.0328 99.3352 30.4748 98.3749 27.9168 97.3899C25.0882 96.3064 22.3088 95.1737 19.4557 94.1148C17.6847 93.45 15.8646 92.9575 13.9707 92.8097C12.8639 92.7112 11.7816 92.7851 10.6994 93.1299C9.00224 93.6962 7.2805 94.238 5.58335 94.8043C5.46037 94.8536 5.3128 94.8782 5.14062 94.9521C3.46807 89.4362 1.72174 83.9695 0 78.5029C0.491926 78.232 1.00845 78.0104 1.47578 77.7149C2.26286 77.2224 3.04994 76.7546 3.76323 76.1636C6.54261 73.8489 9.71553 72.5192 13.282 72.0267C17.6601 71.4111 21.8169 72.2483 25.7523 74.2183C29.7369 76.2128 33.6969 78.232 37.8291 79.9065C40.4609 80.9654 43.1911 81.7287 45.9704 82.2951C47.2494 82.566 48.5039 82.9599 49.6107 83.6494C50.3978 84.1419 51.0127 84.7822 51.0373 85.7918C51.0619 86.7029 50.6683 87.417 50.0288 87.9833C48.799 89.0914 47.2986 89.3623 45.7245 89.1161C44.2733 88.8944 42.8713 88.4758 41.4693 88.0818C38.3456 87.22 35.2219 86.2843 31.9998 85.7179C30.4502 85.447 28.9006 85.2254 27.3265 85.5209C26.5886 85.6686 25.8753 85.8903 25.285 86.3581C25.0144 86.5797 24.7193 86.826 24.8668 87.22C25.0144 87.5893 25.408 87.614 25.7523 87.5401C26.9821 87.2692 28.2119 87.1461 29.4909 87.22C31.7046 87.3185 33.8937 87.7371 36.0335 88.3281C38.4932 89.0176 40.9036 89.7563 43.3632 90.4704C44.6668 90.8398 45.9704 91.086 47.3232 91.0368C49.5615 90.9137 51.8735 89.1653 52.4147 87.1461C52.7344 85.9395 52.4884 84.8068 51.9473 83.7233C51.8735 83.5756 51.7998 83.4771 51.7506 83.3786Z" fill="#062C6B"/>
<path d="M70.7881 27.6779C70.7881 29.0323 70.7881 30.362 70.7881 31.6917C70.7881 33.4893 70.8619 35.2869 70.7389 37.0845C70.5175 40.8028 69.0663 44.004 66.6313 46.7865C64.8358 48.8304 62.5483 50.0123 60.0641 50.9235C57.2355 51.9577 54.3086 52.721 51.357 53.2874C50.4716 53.4598 49.5861 53.2874 48.7252 53.0658C45.9212 52.4009 43.5108 50.9481 41.2971 49.1751C40.3133 48.3871 39.4032 47.5006 38.3702 46.7373C36.8452 45.6046 35.1481 44.7673 33.2296 44.4965C31.8276 44.2748 30.4994 44.4472 29.3188 45.3091C29.245 45.3583 29.1466 45.4076 29.0482 45.4322C28.1381 45.5307 27.3019 45.8262 26.5148 46.3925C26.2196 46.0232 25.9491 45.6784 25.6785 45.3091C23.8584 42.7481 22.8007 39.8917 22.727 36.7398C22.6532 33.7356 22.7024 30.7068 22.7024 27.6533C38.7145 27.6779 54.7267 27.6779 70.7881 27.6779Z" fill="#009FE5"/>
<path d="M50.6437 23.2209C47.2494 22.2606 45.5277 20.4137 45.0112 17.5327C44.6176 15.3903 44.7898 13.2726 45.0604 11.1549C45.3801 8.79097 45.4047 6.42702 44.6422 4.13695C44.1503 2.61023 43.3878 1.23126 42.2072 0.0246582C43.0435 0.123156 43.7322 0.369401 44.4209 0.689519C47.1757 2.01924 48.6514 4.26007 48.922 7.23963C49.0696 8.88947 48.9958 10.5886 48.9712 12.2384C48.922 14.6516 48.7006 17.0402 49.0204 19.4534C49.2417 20.8323 49.6599 22.1128 50.6437 23.2209Z" fill="#009FE5"/>
<path d="M57.8996 21.054C54.6775 20.3399 52.9804 18.4438 52.5376 15.5381C52.2671 13.8636 52.4147 12.1892 52.5622 10.5147C52.8082 7.90451 52.636 5.34357 51.5292 2.93037C51.3816 2.58562 51.1848 2.26551 51.0619 1.82227C51.726 2.16701 52.3901 2.4625 53.005 2.85649C54.9481 4.11234 56.2517 5.81143 56.3993 8.2C56.473 9.45585 56.3747 10.7363 56.3501 11.9922C56.3009 14.1591 56.1533 16.3261 56.6206 18.4684C56.8174 19.3795 57.1617 20.2167 57.7766 20.9309C57.8258 20.9309 57.8504 20.9801 57.8996 21.054Z" fill="#009FE5"/>
<path d="M42.527 21.0786C39.0097 20.266 37.3863 18.2222 37.042 15.021C36.8698 13.5189 36.9928 12.0415 37.1404 10.564C37.3863 8.00304 37.2142 5.51597 36.2057 3.10277C36.0335 2.70878 35.8122 2.31479 35.6646 1.84692C36.0827 2.04392 36.5009 2.21629 36.919 2.43791C38.9113 3.52139 40.3625 5.02348 40.879 7.31356C41.125 8.37241 41.002 9.43126 41.002 10.4901C40.9774 12.6817 40.9282 14.8979 41.002 17.0895C41.0512 18.5423 41.4939 19.9213 42.527 21.0786Z" fill="#009FE5"/>
</g>
<defs>
<clipPath id="clip0_28_409">
<rect width="99" height="100" fill="white"/>
</clipPath>
</defs>
</svg>
