<svg width="90" height="90" viewBox="0 0 90 90" fill="none" xmlns="http://www.w3.org/2000/svg">
<g clip-path="url(#clip0_74_95)">
<path d="M57.9375 77.9433C56.9883 80.6383 57.3047 83.5106 56.9883 86.2766C56.707 88.8298 55.7227 89.9645 53.1211 89.9645C47.9883 89.9645 42.8203 89.8936 37.6875 90C34.4531 90.0709 33.3633 89.4326 33.0469 85.3901C32.8008 82.1986 32.8008 78.9716 32.0625 75.8156C32.2734 72.7659 31.7109 69.7163 31.6055 66.6667C31.5703 65.8865 31.3594 65.4255 30.5156 65.3901C29.8828 65.3546 29.25 65.2482 28.6172 65.2128C26.1211 65.1418 25.2773 64.3262 25.2773 61.773C25.2773 56.0638 25.2422 50.3191 25.2773 44.6099C25.3125 37.5177 29.6719 32.0567 36.6328 30.3901C42.1172 29.6099 47.6367 30.2128 53.1211 30.0355C53.3672 30.1418 53.6133 30.3191 53.8945 30.3901C60.75 32.4468 64.6875 37.695 64.7227 44.8582C64.7227 50 64.7227 55.1064 64.7227 60.2482C64.7227 64.8936 64.4766 65.1773 59.8008 65.3901C58.7461 65.4255 58.3945 65.7801 58.3594 66.844C58.3594 70.5674 57.5859 74.2198 57.9375 77.9433Z" fill="#009FE5"/>
<path d="M36.6328 30.4255C29.707 32.0922 25.3477 37.5177 25.2773 44.6454C25.2422 50.3546 25.2773 56.0993 25.2773 61.8085C25.2773 64.3617 26.1211 65.1773 28.6172 65.2482C29.25 65.2482 29.8828 65.3901 30.5156 65.4255C31.3594 65.461 31.5703 65.922 31.6055 66.7021C31.6758 69.7518 32.2734 72.7659 32.0625 75.8511C31.9219 77.6596 31.7813 79.5035 31.6406 81.312C31.5 83.2979 30.5156 84.2908 28.4766 84.3262C22.6758 84.3617 16.9102 84.3617 11.1094 84.3262C9.2461 84.3262 8.22657 83.4752 8.05079 81.6312C7.66407 78.0142 7.38282 74.3617 7.10157 70.7092C6.85547 67.4823 6.57422 64.2553 6.39844 61.0284C6.32813 60.1064 6.01172 59.7518 5.13282 59.8227C4.50001 59.8582 3.83204 59.8582 3.19922 59.8227C1.16016 59.7163 0.0703181 58.617 0.0703181 56.5957C0.0351619 50.461 -0.0351506 44.3262 0.105474 38.1915C0.246099 31.3475 5.94141 25.3546 12.7266 24.7872C17.5781 24.3972 22.4297 24.2908 27.2461 24.8227C31.1484 25.2128 34.4531 26.9149 36.6328 30.4255Z" fill="#0353A4"/>
<path d="M57.9375 77.9432C57.586 74.2198 58.3242 70.5674 58.3594 66.8794C58.3594 65.8156 58.711 65.4964 59.8008 65.4255C64.4766 65.2127 64.7227 64.9291 64.7227 60.2837C64.7227 55.1418 64.7227 50.0354 64.7227 44.8936C64.6875 37.7305 60.75 32.4823 53.8945 30.4255C53.6133 30.3546 53.4024 30.1773 53.1211 30.0709C56.0391 26.3475 59.8711 24.4681 64.5117 24.4326C68.9414 24.4326 73.4063 24.0071 77.8359 24.6808C84.832 25.7447 89.8945 31.6312 89.9649 38.7943C90 44.5745 90 50.3546 89.9649 56.1347C89.9649 58.5461 88.9453 59.6099 86.625 59.7518C83.5313 59.9291 83.5664 59.9291 83.3203 63.0142C82.8633 69.078 82.4063 75.1064 81.9141 81.1702C81.7383 83.2979 80.7891 84.2198 78.6445 84.2553C73.1602 84.2908 67.6406 84.2553 62.1563 84.2553C59.3438 84.2553 58.6406 83.6525 58.2539 80.8865C58.0781 79.9291 58.043 78.9362 57.9375 77.9432Z" fill="#062C6B"/>
<path d="M8.47267 11.4184C8.47267 5.1773 13.7109 -0.0354642 19.9336 -3.24144e-06C26.0156 0.0354578 31.2188 5.31915 31.2188 11.4539C31.2539 17.7305 26.0156 22.9787 19.793 22.9787C13.5703 22.9787 8.43751 17.7305 8.47267 11.4184Z" fill="#0353A4"/>
<path d="M69.9961 22.9787C63.8438 22.9787 58.7109 17.8723 58.6758 11.6312C58.6406 5.1773 63.7734 -0.0354642 70.1016 -3.24966e-06C76.1836 0.0354577 81.3867 5.28368 81.4219 11.4539C81.457 17.6596 76.2188 22.9433 69.9961 22.9787Z" fill="#062C6B"/>
<path d="M44.9648 28.3333C39.1641 28.7589 33.6094 23.7943 33.5391 17.234C33.4687 10.7447 38.4961 5.60283 44.9648 5.63829C51.2227 5.67375 56.1445 10.7447 56.2852 17.1277C56.4258 23.2979 50.4141 28.9716 44.9648 28.3333Z" fill="#009FE5"/>
</g>
<defs>
<clipPath id="clip0_74_95">
<rect width="90" height="90" fill="white"/>
</clipPath>
</defs>
</svg>
